<svg width="867" height="82" viewBox="0 0 867 82" fill="none" xmlns="http://www.w3.org/2000/svg">
<rect x="1" y="1" width="865" height="80" rx="11" fill="#3A3A3B" stroke="black" stroke-width="2"/>
<path d="M21.25 21.375C21.8646 21.375 22.3698 21.4635 22.7656 21.6406C23.1719 21.8177 23.526 22.0052 23.8281 22.2031V23.6562C23.5365 23.4375 23.1823 23.2344 22.7656 23.0469C22.349 22.849 21.8958 22.75 21.4062 22.75C21.0938 22.75 20.7656 22.8073 20.4219 22.9219C20.0885 23.026 19.8073 23.1979 19.5781 23.4375C19.349 23.6771 19.2344 23.9844 19.2344 24.3594C19.2344 24.776 19.3854 25.0938 19.6875 25.3125C19.9896 25.5312 20.3542 25.7396 20.7812 25.9375L22.2188 26.5938C22.9375 26.9167 23.4792 27.276 23.8438 27.6719C24.2083 28.0677 24.3906 28.5938 24.3906 29.25C24.3906 29.8229 24.224 30.3281 23.8906 30.7656C23.5573 31.1927 23.1198 31.5312 22.5781 31.7812C22.0365 32.0312 21.4427 32.1562 20.7969 32.1562C20.1927 32.1562 19.6354 32.0521 19.125 31.8438C18.6146 31.6354 18.1719 31.401 17.7969 31.1406V29.6875C18.2031 29.9688 18.6667 30.224 19.1875 30.4531C19.7188 30.6719 20.3177 30.7812 20.9844 30.7812C21.5052 30.7812 21.9635 30.651 22.3594 30.3906C22.7552 30.1302 22.9531 29.7708 22.9531 29.3125C22.9531 29.0521 22.8698 28.8281 22.7031 28.6406C22.5469 28.4531 22.3542 28.2917 22.125 28.1562C21.8958 28.0208 21.6719 27.9062 21.4531 27.8125L19.7188 27.0312C18.9688 26.6979 18.4583 26.3073 18.1875 25.8594C17.9167 25.4115 17.7812 24.8958 17.7812 24.3125C17.7812 23.7604 17.9375 23.2656 18.25 22.8281C18.5729 22.3802 19 22.026 19.5312 21.7656C20.0625 21.5052 20.6354 21.375 21.25 21.375ZM29.7188 24.0312C30.5208 24.0312 31.1875 24.1979 31.7188 24.5312C32.25 24.8646 32.6458 25.3177 32.9062 25.8906C33.1771 26.4635 33.3125 27.1094 33.3125 27.8281V28.5938H27.3125C27.375 29.0312 27.526 29.4323 27.7656 29.7969C28.0052 30.1615 28.3177 30.4531 28.7031 30.6719C29.0885 30.8802 29.5312 30.9844 30.0312 30.9844C30.5938 30.9844 31.1198 30.8438 31.6094 30.5625C32.099 30.2708 32.5104 29.9531 32.8438 29.6094L32.8281 31C32.6823 31.1771 32.4635 31.3646 32.1719 31.5625C31.8906 31.75 31.5625 31.9062 31.1875 32.0312C30.8229 32.1667 30.4375 32.2344 30.0312 32.2344C29.2396 32.2344 28.5365 32.0469 27.9219 31.6719C27.3073 31.2969 26.8229 30.8021 26.4688 30.1875C26.125 29.5625 25.9531 28.8802 25.9531 28.1406C25.9531 27.401 26.1146 26.7188 26.4375 26.0938C26.7604 25.4688 27.2031 24.9688 27.7656 24.5938C28.3385 24.2188 28.9896 24.0312 29.7188 24.0312ZM29.7188 25.2812C29.0729 25.2812 28.5417 25.5 28.125 25.9375C27.7083 26.3646 27.4479 26.8854 27.3438 27.5H32.0469C31.9948 26.9896 31.849 26.5729 31.6094 26.25C31.3802 25.9271 31.099 25.6875 30.7656 25.5312C30.4323 25.3646 30.0833 25.2812 29.7188 25.2812ZM38.6406 24.0312C39.0885 24.0312 39.5417 24.1406 40 24.3594C40.4688 24.5677 40.8698 24.8594 41.2031 25.2344V24.1875H42.4844V32H41.2031V30.6719C40.9323 31.0885 40.5625 31.4531 40.0938 31.7656C39.6354 32.0781 39.1094 32.2344 38.5156 32.2344C37.849 32.2344 37.2396 32.0677 36.6875 31.7344C36.1354 31.3906 35.6927 30.9167 35.3594 30.3125C35.0365 29.7083 34.875 29.0104 34.875 28.2188C34.875 27.3542 35.0365 26.6094 35.3594 25.9844C35.6927 25.3594 36.1458 24.8802 36.7188 24.5469C37.2917 24.2031 37.9323 24.0312 38.6406 24.0312ZM38.875 25.2812C38.3125 25.2812 37.8333 25.4219 37.4375 25.7031C37.0417 25.9844 36.7344 26.349 36.5156 26.7969C36.3073 27.2344 36.2031 27.7083 36.2031 28.2188C36.2031 28.7188 36.3073 29.1823 36.5156 29.6094C36.724 30.026 37.0156 30.3594 37.3906 30.6094C37.776 30.8594 38.2188 30.9844 38.7188 30.9844C39.1979 30.9844 39.625 30.8594 40 30.6094C40.375 30.3594 40.6719 30.0156 40.8906 29.5781C41.1094 29.1302 41.2135 28.6302 41.2031 28.0781L41.1875 26.5781C40.8646 26.1719 40.5156 25.8542 40.1406 25.625C39.776 25.3958 39.3542 25.2812 38.875 25.2812ZM46.4219 24.1875V25.75C46.724 25.2292 47.0885 24.8125 47.5156 24.5C47.9427 24.1875 48.3802 24.0312 48.8281 24.0312C49.1302 24.0312 49.401 24.0833 49.6406 24.1875V25.6719C49.3073 25.474 48.974 25.375 48.6406 25.375C48.1094 25.375 47.6771 25.5625 47.3438 25.9375C47.0208 26.3125 46.7135 26.7604 46.4219 27.2812V32H45.1406V24.1875H46.4219ZM54.8125 24.0312C55.3854 24.0312 55.8802 24.125 56.2969 24.3125C56.7135 24.4896 57 24.651 57.1562 24.7969V26.0938C56.8646 25.875 56.5312 25.6875 56.1562 25.5312C55.7812 25.3646 55.3333 25.2812 54.8125 25.2812C54.2604 25.2812 53.776 25.4167 53.3594 25.6875C52.9427 25.9479 52.6198 26.2969 52.3906 26.7344C52.1719 27.1615 52.0625 27.6302 52.0625 28.1406C52.0625 28.6406 52.1719 29.1094 52.3906 29.5469C52.6198 29.974 52.9427 30.3229 53.3594 30.5938C53.776 30.8542 54.2604 30.9844 54.8125 30.9844C55.3333 30.9844 55.7812 30.9062 56.1562 30.75C56.5312 30.5833 56.8646 30.3906 57.1562 30.1719V31.4688C57 31.625 56.7135 31.7917 56.2969 31.9688C55.8802 32.1458 55.3854 32.2344 54.8125 32.2344C54.0208 32.2344 53.3177 32.0469 52.7031 31.6719C52.0885 31.2969 51.6042 30.8021 51.25 30.1875C50.9062 29.5625 50.7344 28.8802 50.7344 28.1406C50.7344 27.401 50.9062 26.7188 51.25 26.0938C51.6042 25.4688 52.0885 24.9688 52.7031 24.5938C53.3177 24.2188 54.0208 24.0312 54.8125 24.0312ZM63.0938 24.0312C63.625 24.0312 64.1094 24.151 64.5469 24.3906C64.9844 24.6198 65.3333 24.974 65.5938 25.4531C65.8542 25.9219 65.9844 26.5156 65.9844 27.2344V32H64.7031L64.6875 27.3594C64.6875 26.6823 64.5365 26.1667 64.2344 25.8125C63.9427 25.4583 63.4896 25.2812 62.875 25.2812C62.4583 25.2812 62.0417 25.4375 61.625 25.75C61.2188 26.0521 60.8594 26.4062 60.5469 26.8125V32H59.2656V20.75H60.5469V25.4219C60.7135 25.2135 60.9271 25.0052 61.1875 24.7969C61.4479 24.5781 61.7396 24.3958 62.0625 24.25C62.3958 24.1042 62.7396 24.0312 63.0938 24.0312ZM75.25 21.9375V24.1875H77.5312V25.3906H75.25V29.9688C75.25 30.2917 75.3333 30.5469 75.5 30.7344C75.6667 30.9219 75.9219 31.0156 76.2656 31.0156C76.5781 31.0156 76.8385 30.9792 77.0469 30.9062C77.2552 30.8229 77.4375 30.7344 77.5938 30.6406V31.6875C77.3854 31.8542 77.1615 31.9844 76.9219 32.0781C76.6927 32.1823 76.3802 32.2344 75.9844 32.2344C75.3177 32.2344 74.8125 32.0365 74.4688 31.6406C74.1354 31.2344 73.9688 30.6979 73.9688 30.0312V25.3906H72.4688V25.0156C72.9792 24.7865 73.4062 24.4115 73.75 23.8906C74.0938 23.3594 74.3958 22.7083 74.6562 21.9375H75.25ZM83.0781 24.0312C83.8802 24.0312 84.5469 24.1979 85.0781 24.5312C85.6094 24.8646 86.0052 25.3177 86.2656 25.8906C86.5365 26.4635 86.6719 27.1094 86.6719 27.8281V28.5938H80.6719C80.7344 29.0312 80.8854 29.4323 81.125 29.7969C81.3646 30.1615 81.6771 30.4531 82.0625 30.6719C82.4479 30.8802 82.8906 30.9844 83.3906 30.9844C83.9531 30.9844 84.4792 30.8438 84.9688 30.5625C85.4583 30.2708 85.8698 29.9531 86.2031 29.6094L86.1875 31C86.0417 31.1771 85.8229 31.3646 85.5312 31.5625C85.25 31.75 84.9219 31.9062 84.5469 32.0312C84.1823 32.1667 83.7969 32.2344 83.3906 32.2344C82.599 32.2344 81.8958 32.0469 81.2812 31.6719C80.6667 31.2969 80.1823 30.8021 79.8281 30.1875C79.4844 29.5625 79.3125 28.8802 79.3125 28.1406C79.3125 27.401 79.474 26.7188 79.7969 26.0938C80.1198 25.4688 80.5625 24.9688 81.125 24.5938C81.6979 24.2188 82.349 24.0312 83.0781 24.0312ZM83.0781 25.2812C82.4323 25.2812 81.901 25.5 81.4844 25.9375C81.0677 26.3646 80.8073 26.8854 80.7031 27.5H85.4062C85.3542 26.9896 85.2083 26.5729 84.9688 26.25C84.7396 25.9271 84.4583 25.6875 84.125 25.5312C83.7917 25.3646 83.4427 25.2812 83.0781 25.2812ZM90.0625 24.1875V25.75C90.3646 25.2292 90.7292 24.8125 91.1562 24.5C91.5833 24.1875 92.0208 24.0312 92.4688 24.0312C92.7708 24.0312 93.0417 24.0833 93.2812 24.1875V25.6719C92.9479 25.474 92.6146 25.375 92.2812 25.375C91.75 25.375 91.3177 25.5625 90.9844 25.9375C90.6615 26.3125 90.3542 26.7604 90.0625 27.2812V32H88.7812V24.1875H90.0625ZM96.2031 24.1875V25.1875C96.4531 24.9062 96.7708 24.6458 97.1562 24.4062C97.5521 24.1562 98.0156 24.0312 98.5469 24.0312C99.1094 24.0312 99.6354 24.1667 100.125 24.4375C100.615 24.6979 100.99 25.0938 101.25 25.625C101.615 25.1875 102.01 24.8125 102.438 24.5C102.865 24.1875 103.365 24.0312 103.938 24.0312C104.469 24.0312 104.964 24.151 105.422 24.3906C105.891 24.6198 106.266 24.974 106.547 25.4531C106.839 25.9219 106.984 26.5156 106.984 27.2344V32H105.703L105.688 27.3594C105.688 26.6823 105.51 26.1667 105.156 25.8125C104.812 25.4583 104.333 25.2812 103.719 25.2812C103.271 25.2812 102.88 25.4219 102.547 25.7031C102.214 25.9844 101.896 26.3125 101.594 26.6875V32H100.312L100.297 27.3594C100.297 26.6823 100.12 26.1667 99.7656 25.8125C99.4219 25.4583 98.9427 25.2812 98.3281 25.2812C97.901 25.2812 97.5104 25.4062 97.1562 25.6562C96.8125 25.9062 96.4948 26.2083 96.2031 26.5625V32H94.9219V24.1875H96.2031ZM110.422 23.8438C110.724 23.8438 110.979 23.9531 111.188 24.1719C111.406 24.3802 111.516 24.6354 111.516 24.9375C111.516 25.2292 111.406 25.4844 111.188 25.7031C110.979 25.9219 110.724 26.0312 110.422 26.0312C110.12 26.0312 109.859 25.9219 109.641 25.7031C109.432 25.4844 109.328 25.2292 109.328 24.9375C109.328 24.6354 109.432 24.3802 109.641 24.1719C109.859 23.9531 110.12 23.8438 110.422 23.8438ZM110.422 30.0938C110.724 30.0938 110.979 30.2031 111.188 30.4219C111.406 30.6302 111.516 30.8854 111.516 31.1875C111.516 31.4792 111.406 31.7344 111.188 31.9531C110.979 32.1719 110.724 32.2812 110.422 32.2812C110.12 32.2812 109.859 32.1719 109.641 31.9531C109.432 31.7344 109.328 31.4792 109.328 31.1875C109.328 30.8854 109.432 30.6302 109.641 30.4219C109.859 30.2031 110.12 30.0938 110.422 30.0938Z" fill="#61BECB"/>
<path d="M120.062 24.1875V25.75C120.365 25.2292 120.729 24.8125 121.156 24.5C121.583 24.1875 122.021 24.0312 122.469 24.0312C122.771 24.0312 123.042 24.0833 123.281 24.1875V25.6719C122.948 25.474 122.615 25.375 122.281 25.375C121.75 25.375 121.318 25.5625 120.984 25.9375C120.661 26.3125 120.354 26.7604 120.062 27.2812V32H118.781V24.1875H120.062ZM128.141 24.0312C128.943 24.0312 129.609 24.1979 130.141 24.5312C130.672 24.8646 131.068 25.3177 131.328 25.8906C131.599 26.4635 131.734 27.1094 131.734 27.8281V28.5938H125.734C125.797 29.0312 125.948 29.4323 126.188 29.7969C126.427 30.1615 126.74 30.4531 127.125 30.6719C127.51 30.8802 127.953 30.9844 128.453 30.9844C129.016 30.9844 129.542 30.8438 130.031 30.5625C130.521 30.2708 130.932 29.9531 131.266 29.6094L131.25 31C131.104 31.1771 130.885 31.3646 130.594 31.5625C130.312 31.75 129.984 31.9062 129.609 32.0312C129.245 32.1667 128.859 32.2344 128.453 32.2344C127.661 32.2344 126.958 32.0469 126.344 31.6719C125.729 31.2969 125.245 30.8021 124.891 30.1875C124.547 29.5625 124.375 28.8802 124.375 28.1406C124.375 27.401 124.536 26.7188 124.859 26.0938C125.182 25.4688 125.625 24.9688 126.188 24.5938C126.76 24.2188 127.411 24.0312 128.141 24.0312ZM128.141 25.2812C127.495 25.2812 126.964 25.5 126.547 25.9375C126.13 26.3646 125.87 26.8854 125.766 27.5H130.469C130.417 26.9896 130.271 26.5729 130.031 26.25C129.802 25.9271 129.521 25.6875 129.188 25.5312C128.854 25.3646 128.505 25.2812 128.141 25.2812ZM136.172 24.0312C136.63 24.0312 137.057 24.099 137.453 24.2344C137.849 24.3594 138.135 24.4896 138.312 24.625V26C138.094 25.8333 137.797 25.6719 137.422 25.5156C137.047 25.3594 136.661 25.2812 136.266 25.2812C135.776 25.2812 135.406 25.3958 135.156 25.625C134.917 25.8542 134.797 26.0938 134.797 26.3438C134.797 26.5417 134.865 26.7448 135 26.9531C135.146 27.151 135.396 27.3125 135.75 27.4375L137.062 27.9062C137.573 28.0833 137.953 28.3385 138.203 28.6719C138.453 29.0052 138.578 29.3958 138.578 29.8438C138.578 30.2812 138.453 30.6823 138.203 31.0469C137.964 31.4115 137.625 31.7031 137.188 31.9219C136.76 32.1302 136.266 32.2344 135.703 32.2344C135.401 32.2344 135.083 32.1927 134.75 32.1094C134.427 32.0365 134.135 31.9479 133.875 31.8438C133.615 31.7292 133.422 31.6302 133.297 31.5469V30.1719C133.443 30.276 133.646 30.3958 133.906 30.5312C134.177 30.6562 134.464 30.7656 134.766 30.8594C135.068 30.9427 135.349 30.9844 135.609 30.9844C136.099 30.9844 136.484 30.875 136.766 30.6562C137.057 30.4375 137.203 30.1667 137.203 29.8438C137.203 29.5938 137.104 29.3958 136.906 29.25C136.719 29.1042 136.443 28.9635 136.078 28.8281L134.922 28.4062C134.318 28.1771 133.917 27.8906 133.719 27.5469C133.521 27.1927 133.422 26.7917 133.422 26.3438C133.422 25.6771 133.672 25.125 134.172 24.6875C134.672 24.25 135.339 24.0312 136.172 24.0312ZM142.688 21.9375V24.1875H144.969V25.3906H142.688V29.9688C142.688 30.2917 142.771 30.5469 142.938 30.7344C143.104 30.9219 143.359 31.0156 143.703 31.0156C144.016 31.0156 144.276 30.9792 144.484 30.9062C144.693 30.8229 144.875 30.7344 145.031 30.6406V31.6875C144.823 31.8542 144.599 31.9844 144.359 32.0781C144.13 32.1823 143.818 32.2344 143.422 32.2344C142.755 32.2344 142.25 32.0365 141.906 31.6406C141.573 31.2344 141.406 30.6979 141.406 30.0312V25.3906H139.906V25.0156C140.417 24.7865 140.844 24.4115 141.188 23.8906C141.531 23.3594 141.833 22.7083 142.094 21.9375H142.688ZM150.516 24.0312C150.964 24.0312 151.417 24.1406 151.875 24.3594C152.344 24.5677 152.745 24.8594 153.078 25.2344V24.1875H154.359V32H153.078V30.6719C152.807 31.0885 152.438 31.4531 151.969 31.7656C151.51 32.0781 150.984 32.2344 150.391 32.2344C149.724 32.2344 149.115 32.0677 148.562 31.7344C148.01 31.3906 147.568 30.9167 147.234 30.3125C146.911 29.7083 146.75 29.0104 146.75 28.2188C146.75 27.3542 146.911 26.6094 147.234 25.9844C147.568 25.3594 148.021 24.8802 148.594 24.5469C149.167 24.2031 149.807 24.0312 150.516 24.0312ZM150.75 25.2812C150.188 25.2812 149.708 25.4219 149.312 25.7031C148.917 25.9844 148.609 26.349 148.391 26.7969C148.182 27.2344 148.078 27.7083 148.078 28.2188C148.078 28.7188 148.182 29.1823 148.391 29.6094C148.599 30.026 148.891 30.3594 149.266 30.6094C149.651 30.8594 150.094 30.9844 150.594 30.9844C151.073 30.9844 151.5 30.8594 151.875 30.6094C152.25 30.3594 152.547 30.0156 152.766 29.5781C152.984 29.1302 153.089 28.6302 153.078 28.0781L153.062 26.5781C152.74 26.1719 152.391 25.8542 152.016 25.625C151.651 25.3958 151.229 25.2812 150.75 25.2812ZM163.406 24.1875V28.8125C163.406 29.5 163.26 30.0938 162.969 30.5938C162.677 31.0938 162.281 31.4792 161.781 31.75C161.281 32.0208 160.719 32.1562 160.094 32.1562C159.469 32.1562 158.906 32.0208 158.406 31.75C157.906 31.4792 157.51 31.0938 157.219 30.5938C156.927 30.0938 156.781 29.5 156.781 28.8125V24.1875H158.109V28.8125C158.109 29.4896 158.307 30.0104 158.703 30.375C159.109 30.7292 159.573 30.9062 160.094 30.9062C160.615 30.9062 161.073 30.7292 161.469 30.375C161.875 30.0104 162.078 29.4896 162.078 28.8125V24.1875H163.406ZM167.109 24.1875V25.75C167.411 25.2292 167.776 24.8125 168.203 24.5C168.63 24.1875 169.068 24.0312 169.516 24.0312C169.818 24.0312 170.089 24.0833 170.328 24.1875V25.6719C169.995 25.474 169.661 25.375 169.328 25.375C168.797 25.375 168.365 25.5625 168.031 25.9375C167.708 26.3125 167.401 26.7604 167.109 27.2812V32H165.828V24.1875H167.109ZM175.188 24.0312C175.635 24.0312 176.089 24.1406 176.547 24.3594C177.016 24.5677 177.417 24.8594 177.75 25.2344V24.1875H179.031V32H177.75V30.6719C177.479 31.0885 177.109 31.4531 176.641 31.7656C176.182 32.0781 175.656 32.2344 175.062 32.2344C174.396 32.2344 173.786 32.0677 173.234 31.7344C172.682 31.3906 172.24 30.9167 171.906 30.3125C171.583 29.7083 171.422 29.0104 171.422 28.2188C171.422 27.3542 171.583 26.6094 171.906 25.9844C172.24 25.3594 172.693 24.8802 173.266 24.5469C173.839 24.2031 174.479 24.0312 175.188 24.0312ZM175.422 25.2812C174.859 25.2812 174.38 25.4219 173.984 25.7031C173.589 25.9844 173.281 26.349 173.062 26.7969C172.854 27.2344 172.75 27.7083 172.75 28.2188C172.75 28.7188 172.854 29.1823 173.062 29.6094C173.271 30.026 173.562 30.3594 173.938 30.6094C174.323 30.8594 174.766 30.9844 175.266 30.9844C175.745 30.9844 176.172 30.8594 176.547 30.6094C176.922 30.3594 177.219 30.0156 177.438 29.5781C177.656 29.1302 177.76 28.6302 177.75 28.0781L177.734 26.5781C177.411 26.1719 177.062 25.8542 176.688 25.625C176.323 25.3958 175.901 25.2812 175.422 25.2812ZM182.969 24.1875V25.4219C183.135 25.2135 183.349 25.0052 183.609 24.7969C183.87 24.5781 184.161 24.3958 184.484 24.25C184.818 24.1042 185.161 24.0312 185.516 24.0312C186.047 24.0312 186.531 24.151 186.969 24.3906C187.406 24.6198 187.755 24.974 188.016 25.4531C188.276 25.9219 188.406 26.5156 188.406 27.2344V32H187.125L187.109 27.3594C187.109 26.6823 186.958 26.1667 186.656 25.8125C186.365 25.4583 185.911 25.2812 185.297 25.2812C184.88 25.2812 184.464 25.4375 184.047 25.75C183.641 26.0521 183.281 26.4062 182.969 26.8125V32H181.688V24.1875H182.969ZM192.984 21.9375V24.1875H195.266V25.3906H192.984V29.9688C192.984 30.2917 193.068 30.5469 193.234 30.7344C193.401 30.9219 193.656 31.0156 194 31.0156C194.312 31.0156 194.573 30.9792 194.781 30.9062C194.99 30.8229 195.172 30.7344 195.328 30.6406V31.6875C195.12 31.8542 194.896 31.9844 194.656 32.0781C194.427 32.1823 194.115 32.2344 193.719 32.2344C193.052 32.2344 192.547 32.0365 192.203 31.6406C191.87 31.2344 191.703 30.6979 191.703 30.0312V25.3906H190.203V25.0156C190.714 24.7865 191.141 24.4115 191.484 23.8906C191.828 23.3594 192.13 22.7083 192.391 21.9375H192.984ZM199.922 24.0312C200.38 24.0312 200.807 24.099 201.203 24.2344C201.599 24.3594 201.885 24.4896 202.062 24.625V26C201.844 25.8333 201.547 25.6719 201.172 25.5156C200.797 25.3594 200.411 25.2812 200.016 25.2812C199.526 25.2812 199.156 25.3958 198.906 25.625C198.667 25.8542 198.547 26.0938 198.547 26.3438C198.547 26.5417 198.615 26.7448 198.75 26.9531C198.896 27.151 199.146 27.3125 199.5 27.4375L200.812 27.9062C201.323 28.0833 201.703 28.3385 201.953 28.6719C202.203 29.0052 202.328 29.3958 202.328 29.8438C202.328 30.2812 202.203 30.6823 201.953 31.0469C201.714 31.4115 201.375 31.7031 200.938 31.9219C200.51 32.1302 200.016 32.2344 199.453 32.2344C199.151 32.2344 198.833 32.1927 198.5 32.1094C198.177 32.0365 197.885 31.9479 197.625 31.8438C197.365 31.7292 197.172 31.6302 197.047 31.5469V30.1719C197.193 30.276 197.396 30.3958 197.656 30.5312C197.927 30.6562 198.214 30.7656 198.516 30.8594C198.818 30.9427 199.099 30.9844 199.359 30.9844C199.849 30.9844 200.234 30.875 200.516 30.6562C200.807 30.4375 200.953 30.1667 200.953 29.8438C200.953 29.5938 200.854 29.3958 200.656 29.25C200.469 29.1042 200.193 28.9635 199.828 28.8281L198.672 28.4062C198.068 28.1771 197.667 27.8906 197.469 27.5469C197.271 27.1927 197.172 26.7917 197.172 26.3438C197.172 25.6771 197.422 25.125 197.922 24.6875C198.422 24.25 199.089 24.0312 199.922 24.0312Z" fill="#E5E6DF"/>
<path d="M20.125 49.5312V58.6719H25.8906V60H18.7188V49.5312H20.125ZM31.7969 52.0312C32.5885 52.0312 33.2917 52.2188 33.9062 52.5938C34.5208 52.9688 35 53.4688 35.3438 54.0938C35.6979 54.7188 35.875 55.401 35.875 56.1406C35.875 56.8802 35.6979 57.5625 35.3438 58.1875C35 58.8021 34.5208 59.2969 33.9062 59.6719C33.2917 60.0469 32.5885 60.2344 31.7969 60.2344C31.0052 60.2344 30.3021 60.0469 29.6875 59.6719C29.0729 59.2969 28.5885 58.8021 28.2344 58.1875C27.8906 57.5625 27.7188 56.8802 27.7188 56.1406C27.7188 55.401 27.8906 54.7188 28.2344 54.0938C28.5885 53.4688 29.0729 52.9688 29.6875 52.5938C30.3021 52.2188 31.0052 52.0312 31.7969 52.0312ZM31.7969 53.2812C31.2448 53.2812 30.7604 53.4167 30.3438 53.6875C29.9271 53.9479 29.6042 54.2969 29.375 54.7344C29.1562 55.1615 29.0469 55.6302 29.0469 56.1406C29.0469 56.6406 29.1562 57.1094 29.375 57.5469C29.6042 57.974 29.9271 58.3229 30.3438 58.5938C30.7604 58.8542 31.2448 58.9844 31.7969 58.9844C32.3594 58.9844 32.8438 58.8542 33.25 58.5938C33.6667 58.3229 33.9844 57.974 34.2031 57.5469C34.4323 57.1094 34.5469 56.6406 34.5469 56.1406C34.5469 55.6302 34.4323 55.1615 34.2031 54.7344C33.9844 54.2969 33.6667 53.9479 33.25 53.6875C32.8438 53.4167 32.3594 53.2812 31.7969 53.2812ZM41.5156 52.0312C42.0885 52.0312 42.5833 52.125 43 52.3125C43.4167 52.4896 43.7031 52.651 43.8594 52.7969V54.0938C43.5677 53.875 43.2344 53.6875 42.8594 53.5312C42.4844 53.3646 42.0365 53.2812 41.5156 53.2812C40.9635 53.2812 40.4792 53.4167 40.0625 53.6875C39.6458 53.9479 39.3229 54.2969 39.0938 54.7344C38.875 55.1615 38.7656 55.6302 38.7656 56.1406C38.7656 56.6406 38.875 57.1094 39.0938 57.5469C39.3229 57.974 39.6458 58.3229 40.0625 58.5938C40.4792 58.8542 40.9635 58.9844 41.5156 58.9844C42.0365 58.9844 42.4844 58.9062 42.8594 58.75C43.2344 58.5833 43.5677 58.3906 43.8594 58.1719V59.4688C43.7031 59.625 43.4167 59.7917 43 59.9688C42.5833 60.1458 42.0885 60.2344 41.5156 60.2344C40.724 60.2344 40.0208 60.0469 39.4062 59.6719C38.7917 59.2969 38.3073 58.8021 37.9531 58.1875C37.6094 57.5625 37.4375 56.8802 37.4375 56.1406C37.4375 55.401 37.6094 54.7188 37.9531 54.0938C38.3073 53.4688 38.7917 52.9688 39.4062 52.5938C40.0208 52.2188 40.724 52.0312 41.5156 52.0312ZM49.1875 52.0312C49.6354 52.0312 50.0885 52.1406 50.5469 52.3594C51.0156 52.5677 51.4167 52.8594 51.75 53.2344V52.1875H53.0312V60H51.75V58.6719C51.4792 59.0885 51.1094 59.4531 50.6406 59.7656C50.1823 60.0781 49.6562 60.2344 49.0625 60.2344C48.3958 60.2344 47.7865 60.0677 47.2344 59.7344C46.6823 59.3906 46.2396 58.9167 45.9062 58.3125C45.5833 57.7083 45.4219 57.0104 45.4219 56.2188C45.4219 55.3542 45.5833 54.6094 45.9062 53.9844C46.2396 53.3594 46.6927 52.8802 47.2656 52.5469C47.8385 52.2031 48.4792 52.0312 49.1875 52.0312ZM49.4219 53.2812C48.8594 53.2812 48.3802 53.4219 47.9844 53.7031C47.5885 53.9844 47.2812 54.349 47.0625 54.7969C46.8542 55.2344 46.75 55.7083 46.75 56.2188C46.75 56.7188 46.8542 57.1823 47.0625 57.6094C47.2708 58.026 47.5625 58.3594 47.9375 58.6094C48.3229 58.8594 48.7656 58.9844 49.2656 58.9844C49.7448 58.9844 50.1719 58.8594 50.5469 58.6094C50.9219 58.3594 51.2188 58.0156 51.4375 57.5781C51.6562 57.1302 51.7604 56.6302 51.75 56.0781L51.7344 54.5781C51.4115 54.1719 51.0625 53.8542 50.6875 53.625C50.3229 53.3958 49.901 53.2812 49.4219 53.2812ZM57.8438 49.9375V52.1875H60.125V53.3906H57.8438V57.9688C57.8438 58.2917 57.9271 58.5469 58.0938 58.7344C58.2604 58.9219 58.5156 59.0156 58.8594 59.0156C59.1719 59.0156 59.4323 58.9792 59.6406 58.9062C59.849 58.8229 60.0312 58.7344 60.1875 58.6406V59.6875C59.9792 59.8542 59.7552 59.9844 59.5156 60.0781C59.2865 60.1823 58.974 60.2344 58.5781 60.2344C57.9115 60.2344 57.4062 60.0365 57.0625 59.6406C56.7292 59.2344 56.5625 58.6979 56.5625 58.0312V53.3906H55.0625V53.0156C55.5729 52.7865 56 52.4115 56.3438 51.8906C56.6875 51.3594 56.9896 50.7083 57.25 49.9375H57.8438ZM63.7031 48.4375C64.0052 48.4375 64.2552 48.5469 64.4531 48.7656C64.6615 48.974 64.7656 49.2188 64.7656 49.5C64.7656 49.7708 64.6615 50.0156 64.4531 50.2344C64.2552 50.4531 64.0052 50.5625 63.7031 50.5625C63.401 50.5625 63.1458 50.4531 62.9375 50.2344C62.7396 50.0156 62.6406 49.7708 62.6406 49.5C62.6406 49.2188 62.7396 48.974 62.9375 48.7656C63.1458 48.5469 63.401 48.4375 63.7031 48.4375ZM64.5 52.1875V60H63.2188V53.3906H61.9844V52.1875H64.5ZM70.7969 52.0312C71.5885 52.0312 72.2917 52.2188 72.9062 52.5938C73.5208 52.9688 74 53.4688 74.3438 54.0938C74.6979 54.7188 74.875 55.401 74.875 56.1406C74.875 56.8802 74.6979 57.5625 74.3438 58.1875C74 58.8021 73.5208 59.2969 72.9062 59.6719C72.2917 60.0469 71.5885 60.2344 70.7969 60.2344C70.0052 60.2344 69.3021 60.0469 68.6875 59.6719C68.0729 59.2969 67.5885 58.8021 67.2344 58.1875C66.8906 57.5625 66.7188 56.8802 66.7188 56.1406C66.7188 55.401 66.8906 54.7188 67.2344 54.0938C67.5885 53.4688 68.0729 52.9688 68.6875 52.5938C69.3021 52.2188 70.0052 52.0312 70.7969 52.0312ZM70.7969 53.2812C70.2448 53.2812 69.7604 53.4167 69.3438 53.6875C68.9271 53.9479 68.6042 54.2969 68.375 54.7344C68.1562 55.1615 68.0469 55.6302 68.0469 56.1406C68.0469 56.6406 68.1562 57.1094 68.375 57.5469C68.6042 57.974 68.9271 58.3229 69.3438 58.5938C69.7604 58.8542 70.2448 58.9844 70.7969 58.9844C71.3594 58.9844 71.8438 58.8542 72.25 58.5938C72.6667 58.3229 72.9844 57.974 73.2031 57.5469C73.4323 57.1094 73.5469 56.6406 73.5469 56.1406C73.5469 55.6302 73.4323 55.1615 73.2031 54.7344C72.9844 54.2969 72.6667 53.9479 72.25 53.6875C71.8438 53.4167 71.3594 53.2812 70.7969 53.2812ZM78.2656 52.1875V53.4219C78.4323 53.2135 78.6458 53.0052 78.9062 52.7969C79.1667 52.5781 79.4583 52.3958 79.7812 52.25C80.1146 52.1042 80.4583 52.0312 80.8125 52.0312C81.3438 52.0312 81.8281 52.151 82.2656 52.3906C82.7031 52.6198 83.0521 52.974 83.3125 53.4531C83.5729 53.9219 83.7031 54.5156 83.7031 55.2344V60H82.4219L82.4062 55.3594C82.4062 54.6823 82.2552 54.1667 81.9531 53.8125C81.6615 53.4583 81.2083 53.2812 80.5938 53.2812C80.1771 53.2812 79.7604 53.4375 79.3438 53.75C78.9375 54.0521 78.5781 54.4062 78.2656 54.8125V60H76.9844V52.1875H78.2656ZM87.1406 51.8438C87.4427 51.8438 87.6979 51.9531 87.9062 52.1719C88.125 52.3802 88.2344 52.6354 88.2344 52.9375C88.2344 53.2292 88.125 53.4844 87.9062 53.7031C87.6979 53.9219 87.4427 54.0312 87.1406 54.0312C86.8385 54.0312 86.5781 53.9219 86.3594 53.7031C86.151 53.4844 86.0469 53.2292 86.0469 52.9375C86.0469 52.6354 86.151 52.3802 86.3594 52.1719C86.5781 51.9531 86.8385 51.8438 87.1406 51.8438ZM87.1406 58.0938C87.4427 58.0938 87.6979 58.2031 87.9062 58.4219C88.125 58.6302 88.2344 58.8854 88.2344 59.1875C88.2344 59.4792 88.125 59.7344 87.9062 59.9531C87.6979 60.1719 87.4427 60.2812 87.1406 60.2812C86.8385 60.2812 86.5781 60.1719 86.3594 59.9531C86.151 59.7344 86.0469 59.4792 86.0469 59.1875C86.0469 58.8854 86.151 58.6302 86.3594 58.4219C86.5781 58.2031 86.8385 58.0938 87.1406 58.0938Z" fill="#61BECB"/>
<path d="M96.0625 60C96.3854 59.6979 96.7656 59.349 97.2031 58.9531C97.6406 58.5573 98.0833 58.1354 98.5312 57.6875C98.9792 57.2396 99.3802 56.7917 99.7344 56.3438C100.089 55.8958 100.344 55.4688 100.5 55.0625C100.24 55.3854 99.9115 55.6771 99.5156 55.9375C99.1198 56.1979 98.6771 56.3281 98.1875 56.3281C97.5 56.3281 96.9115 56.1771 96.4219 55.875C95.9323 55.5625 95.5521 55.1615 95.2812 54.6719C95.0208 54.1719 94.8906 53.6406 94.8906 53.0781C94.8906 52.6302 94.9688 52.1823 95.125 51.7344C95.2917 51.2865 95.526 50.8802 95.8281 50.5156C96.1406 50.1406 96.5156 49.8438 96.9531 49.625C97.3906 49.4062 97.8854 49.2969 98.4375 49.2969C99.1354 49.2969 99.7656 49.4583 100.328 49.7812C100.901 50.1042 101.354 50.5677 101.688 51.1719C102.031 51.776 102.203 52.4948 102.203 53.3281C102.203 53.8906 102.099 54.4479 101.891 55C101.682 55.5417 101.411 56.0677 101.078 56.5781C100.755 57.0781 100.406 57.5469 100.031 57.9844C99.6562 58.4219 99.3021 58.8125 98.9688 59.1562C98.6354 59.5 98.3594 59.7812 98.1406 60H96.0625ZM98.5156 55.0625C98.901 55.0625 99.276 54.974 99.6406 54.7969C100.005 54.6094 100.302 54.3594 100.531 54.0469C100.76 53.724 100.875 53.349 100.875 52.9219C100.875 52.4531 100.76 52.0417 100.531 51.6875C100.302 51.3333 100.005 51.0573 99.6406 50.8594C99.276 50.6615 98.901 50.5625 98.5156 50.5625C98.1198 50.5625 97.7448 50.6615 97.3906 50.8594C97.0469 51.0573 96.7656 51.3333 96.5469 51.6875C96.3281 52.0417 96.2188 52.4531 96.2188 52.9219C96.2188 53.349 96.3281 53.724 96.5469 54.0469C96.7656 54.3594 97.0469 54.6094 97.3906 54.7969C97.7448 54.974 98.1198 55.0625 98.5156 55.0625ZM107.062 49.2969C107.646 49.2969 108.172 49.4167 108.641 49.6562C109.12 49.8854 109.5 50.2083 109.781 50.625C110.062 51.0417 110.203 51.526 110.203 52.0781C110.203 52.6823 110.057 53.1771 109.766 53.5625C109.474 53.9375 109.115 54.2448 108.688 54.4844C109.177 54.7135 109.604 55.0573 109.969 55.5156C110.333 55.9635 110.516 56.4844 110.516 57.0781C110.516 57.6615 110.37 58.1927 110.078 58.6719C109.797 59.151 109.396 59.5312 108.875 59.8125C108.354 60.0938 107.75 60.2344 107.062 60.2344C106.375 60.2344 105.771 60.0938 105.25 59.8125C104.74 59.5312 104.339 59.151 104.047 58.6719C103.755 58.1927 103.609 57.6615 103.609 57.0781C103.609 56.4844 103.792 55.9635 104.156 55.5156C104.521 55.0573 104.948 54.7135 105.438 54.4844C105.021 54.2448 104.661 53.9375 104.359 53.5625C104.068 53.1771 103.922 52.6823 103.922 52.0781C103.922 51.526 104.062 51.0417 104.344 50.625C104.625 50.2083 105 49.8854 105.469 49.6562C105.948 49.4167 106.479 49.2969 107.062 49.2969ZM107.062 50.5625C106.771 50.5625 106.484 50.6354 106.203 50.7812C105.922 50.9271 105.693 51.125 105.516 51.375C105.339 51.625 105.25 51.9115 105.25 52.2344C105.25 52.5573 105.339 52.8385 105.516 53.0781C105.693 53.3073 105.922 53.4896 106.203 53.625C106.484 53.75 106.771 53.8125 107.062 53.8125C107.365 53.8125 107.651 53.75 107.922 53.625C108.203 53.4896 108.432 53.3073 108.609 53.0781C108.786 52.8385 108.875 52.5573 108.875 52.2344C108.875 51.9115 108.786 51.625 108.609 51.375C108.432 51.125 108.203 50.9271 107.922 50.7812C107.651 50.6354 107.365 50.5625 107.062 50.5625ZM107.062 55.125C106.719 55.125 106.38 55.2083 106.047 55.375C105.724 55.5417 105.458 55.7656 105.25 56.0469C105.042 56.3281 104.938 56.6458 104.938 57C104.938 57.3438 105.031 57.6667 105.219 57.9688C105.406 58.2708 105.661 58.5156 105.984 58.7031C106.307 58.8802 106.667 58.9688 107.062 58.9688C107.469 58.9688 107.828 58.8802 108.141 58.7031C108.464 58.5156 108.719 58.2708 108.906 57.9688C109.094 57.6667 109.188 57.3438 109.188 57C109.188 56.6458 109.083 56.3281 108.875 56.0469C108.667 55.7656 108.401 55.5417 108.078 55.375C107.755 55.2083 107.417 55.125 107.062 55.125ZM118.719 58.75V60H113.047V58.75H115.125V51.9375C114.812 52.2083 114.49 52.3958 114.156 52.5C113.823 52.6042 113.49 52.6875 113.156 52.75V51.4062C113.76 51.25 114.286 50.9948 114.734 50.6406C115.182 50.2865 115.552 49.9167 115.844 49.5312H116.531V58.75H118.719ZM124.297 49.2969C124.974 49.2969 125.557 49.4531 126.047 49.7656C126.547 50.0781 126.958 50.5 127.281 51.0312C127.604 51.5521 127.844 52.1354 128 52.7812C128.167 53.4271 128.25 54.0885 128.25 54.7656C128.25 55.4323 128.167 56.0938 128 56.75C127.844 57.3958 127.604 57.9844 127.281 58.5156C126.958 59.0365 126.547 59.4531 126.047 59.7656C125.557 60.0781 124.974 60.2344 124.297 60.2344C123.63 60.2344 123.047 60.0781 122.547 59.7656C122.047 59.4531 121.635 59.0365 121.312 58.5156C120.99 57.9844 120.745 57.3958 120.578 56.75C120.422 56.0938 120.344 55.4323 120.344 54.7656C120.344 54.0885 120.422 53.4271 120.578 52.7812C120.745 52.1354 120.99 51.5521 121.312 51.0312C121.635 50.5 122.047 50.0781 122.547 49.7656C123.047 49.4531 123.63 49.2969 124.297 49.2969ZM124.297 50.6719C123.87 50.6719 123.49 50.7917 123.156 51.0312C122.833 51.2604 122.562 51.5729 122.344 51.9688C122.125 52.3542 121.958 52.7917 121.844 53.2812C121.729 53.7604 121.672 54.2552 121.672 54.7656C121.672 55.276 121.729 55.776 121.844 56.2656C121.958 56.7448 122.125 57.1823 122.344 57.5781C122.562 57.9635 122.833 58.276 123.156 58.5156C123.49 58.7448 123.87 58.8594 124.297 58.8594C124.724 58.8594 125.099 58.7448 125.422 58.5156C125.755 58.276 126.031 57.9635 126.25 57.5781C126.469 57.1823 126.635 56.7448 126.75 56.2656C126.865 55.776 126.922 55.276 126.922 54.7656C126.922 54.2552 126.865 53.7604 126.75 53.2812C126.635 52.7917 126.469 52.3542 126.25 51.9688C126.031 51.5729 125.755 51.2604 125.422 51.0312C125.099 50.7917 124.724 50.6719 124.297 50.6719ZM135.906 58.75V60H130.234V58.75H132.312V51.9375C132 52.2083 131.677 52.3958 131.344 52.5C131.01 52.6042 130.677 52.6875 130.344 52.75V51.4062C130.948 51.25 131.474 50.9948 131.922 50.6406C132.37 50.2865 132.74 49.9167 133.031 49.5312H133.719V58.75H135.906ZM139.016 58.1562L140.297 58.5938L138.891 62.7656L137.922 62.5156L139.016 58.1562ZM160.828 49.5312L157.156 60H156.359L153.547 52.0781L150.703 60H149.906L146.391 49.5312H147.922L150.375 57.3125L153.141 49.5312L154.047 49.5469L156.734 57.3125L159.297 49.5312H160.828ZM165.641 49.5312L170.531 60H168.844L167.75 57.5H162.844L161.734 60H160.047L164.938 49.5312H165.641ZM165.312 51.9062L163.422 56.1719H167.172L165.312 51.9062ZM172.562 58.1562L173.844 58.5938L172.438 62.7656L171.469 62.5156L172.562 58.1562ZM189.969 49.5V55.8594C189.969 56.7656 189.776 57.5469 189.391 58.2031C189.016 58.849 188.505 59.3438 187.859 59.6875C187.214 60.0312 186.479 60.2031 185.656 60.2031C184.844 60.2031 184.109 60.0312 183.453 59.6875C182.807 59.3438 182.292 58.849 181.906 58.2031C181.531 57.5469 181.344 56.7656 181.344 55.8594V49.5H182.75V55.8125C182.75 56.5208 182.88 57.0938 183.141 57.5312C183.411 57.9688 183.766 58.2865 184.203 58.4844C184.651 58.6719 185.135 58.7656 185.656 58.7656C186.177 58.7552 186.656 58.6562 187.094 58.4688C187.542 58.2708 187.896 57.9583 188.156 57.5312C188.427 57.0938 188.562 56.5208 188.562 55.8125V49.5H189.969ZM195.781 49.375C196.396 49.375 196.901 49.4635 197.297 49.6406C197.703 49.8177 198.057 50.0052 198.359 50.2031V51.6562C198.068 51.4375 197.714 51.2344 197.297 51.0469C196.88 50.849 196.427 50.75 195.938 50.75C195.625 50.75 195.297 50.8073 194.953 50.9219C194.62 51.026 194.339 51.1979 194.109 51.4375C193.88 51.6771 193.766 51.9844 193.766 52.3594C193.766 52.776 193.917 53.0938 194.219 53.3125C194.521 53.5312 194.885 53.7396 195.312 53.9375L196.75 54.5938C197.469 54.9167 198.01 55.276 198.375 55.6719C198.74 56.0677 198.922 56.5938 198.922 57.25C198.922 57.8229 198.755 58.3281 198.422 58.7656C198.089 59.1927 197.651 59.5312 197.109 59.7812C196.568 60.0312 195.974 60.1562 195.328 60.1562C194.724 60.1562 194.167 60.0521 193.656 59.8438C193.146 59.6354 192.703 59.401 192.328 59.1406V57.6875C192.734 57.9688 193.198 58.224 193.719 58.4531C194.25 58.6719 194.849 58.7812 195.516 58.7812C196.036 58.7812 196.495 58.651 196.891 58.3906C197.286 58.1302 197.484 57.7708 197.484 57.3125C197.484 57.0521 197.401 56.8281 197.234 56.6406C197.078 56.4531 196.885 56.2917 196.656 56.1562C196.427 56.0208 196.203 55.9062 195.984 55.8125L194.25 55.0312C193.5 54.6979 192.99 54.3073 192.719 53.8594C192.448 53.4115 192.312 52.8958 192.312 52.3125C192.312 51.7604 192.469 51.2656 192.781 50.8281C193.104 50.3802 193.531 50.026 194.062 49.7656C194.594 49.5052 195.167 49.375 195.781 49.375ZM205.453 49.5312L210.344 60H208.656L207.562 57.5H202.656L201.547 60H199.859L204.75 49.5312H205.453ZM205.125 51.9062L203.234 56.1719H206.984L205.125 51.9062Z" fill="#FBFCF4"/>
<path d="M834.5 37.0444V20.5C834.5 18.5649 832.935 17 831 17C829.065 17 827.5 18.5649 827.5 20.5V37.0467L823.473 33.0195C822.106 31.6524 819.887 31.6524 818.519 33.0195C817.152 34.3865 817.152 36.6056 818.519 37.9727L828.519 47.9727C829.887 49.3398 832.106 49.3398 833.473 47.9727L843.473 37.9727C844.84 36.6056 844.84 34.3865 843.473 33.0195C842.106 31.6524 839.887 31.6524 838.519 33.0195L838.519 33.0199L834.5 37.0444ZM838.07 44.5H837.656L837.363 44.7929L833.824 48.332C832.262 49.8946 829.731 49.8946 828.168 48.332L824.638 44.7937L824.345 44.5H823.93H816C812.69 44.5 810 47.1899 810 50.5V53C810 56.3101 812.69 59 816 59H846C849.31 59 852 56.3101 852 53V50.5C852 47.1899 849.31 44.5 846 44.5H838.07ZM844.75 50.875C844.982 50.875 845.205 50.9672 845.369 51.1313C845.533 51.2954 845.625 51.5179 845.625 51.75C845.625 51.9821 845.533 52.2046 845.369 52.3687C845.205 52.5328 844.982 52.625 844.75 52.625C844.518 52.625 844.295 52.5328 844.131 52.3687C843.967 52.2046 843.875 51.9821 843.875 51.75C843.875 51.5179 843.967 51.2954 844.131 51.1313C844.295 50.9672 844.518 50.875 844.75 50.875Z" fill="#796EE8" stroke="black" stroke-width="2"/>
</svg>
