<svg width="870" height="274" viewBox="0 0 870 274" fill="none" xmlns="http://www.w3.org/2000/svg">
<rect x="1" y="1" width="868" height="260" rx="11" fill="#3A3A3B" stroke="black" stroke-width="2"/>
<path d="M74.7916 46.672V44.848H77.0716V45.928L78.1036 46.984H83.5996L84.6556 45.904V42.448L83.5996 41.416H77.1676L74.8396 39.064V34.528L77.1676 32.2H84.4156L86.7436 34.528V36.376H84.4876V35.272L83.4316 34.216H78.1756L77.1196 35.272V38.344L78.1756 39.4H84.6076L86.9356 41.728V46.624L84.5596 49H77.1196L74.7916 46.672ZM90.7834 46.72V38.968H88.6234V37.048H90.8314V33.16H93.0154V37.048H96.7354V38.992H93.0154V46L94.0954 47.056H96.7354V49H93.0874L90.7834 46.72ZM98.9059 46.96V44.008L100.946 41.968H107.234V39.952L106.178 38.92H102.266L101.234 39.952V40.84H99.0019V39.376L101.33 37.048H107.114L109.442 39.376V49H107.354V47.032L105.29 49H100.946L98.9059 46.96ZM104.978 47.152L107.234 44.992V43.744H101.978L101.138 44.584V46.336L101.978 47.152H104.978ZM112.672 37.048H114.808V39.136L116.872 37.048H120.064V38.992H117.376L114.904 41.488V49H112.672V37.048ZM123.174 46.72V38.968H121.014V37.048H123.222V33.16H125.406V37.048H129.126V38.992H125.406V46L126.486 47.056H129.126V49H125.478L123.174 46.72ZM137.367 46.96V44.008L139.407 41.968H145.695V39.952L144.639 38.92H140.727L139.695 39.952V40.84H137.463V39.376L139.791 37.048H145.575L147.903 39.376V49H145.815V47.032L143.751 49H139.407L137.367 46.96ZM143.439 47.152L145.695 44.992V43.744H140.439L139.599 44.584V46.336L140.439 47.152H143.439ZM156.603 46.912V45.424H158.835V46.312L159.651 47.104H163.875L164.691 46.312V44.728L163.875 43.888H158.715L156.699 41.872V39.136L158.763 37.048H164.595L166.683 39.136V40.624H164.451V39.736L163.635 38.944H159.747L158.931 39.736V41.224L159.747 42.064H164.859L166.923 44.128V46.912L164.859 49H158.691L156.603 46.912ZM169.432 46.72V39.352L171.736 37.048H178L180.304 39.352V43.72H171.664V46.024L172.72 47.08H177.016L178.072 46.048V45.232H180.28V46.72L178.024 49H171.712L169.432 46.72ZM178.072 41.968V40.024L176.992 38.968H172.744L171.664 40.024V41.968H178.072ZM182.953 46.96V44.008L184.993 41.968H191.281V39.952L190.225 38.92H186.313L185.281 39.952V40.84H183.049V39.376L185.377 37.048H191.161L193.489 39.376V49H191.401V47.032L189.337 49H184.993L182.953 46.96ZM189.025 47.152L191.281 44.992V43.744H186.025L185.185 44.584V46.336L186.025 47.152H189.025ZM196.719 37.048H198.855V39.136L200.919 37.048H204.111V38.992H201.423L198.951 41.488V49H196.719V37.048ZM205.292 46.72V39.328L207.572 37.048H213.596L215.9 39.352V41.056H213.668V40.072L212.588 38.992H208.604L207.524 40.072V45.976L208.604 47.056H212.588L213.668 45.976V44.992H215.9V46.696L213.596 49H207.572L205.292 46.72ZM218.539 31.864H220.771V39.328L223.051 37.048H226.819L229.171 39.4V49H226.939V40.072L225.859 38.992H223.531L220.771 41.752V49H218.539V31.864Z" fill="#FBFCF4"/>
<path d="M238.005 49.208V37.608L239.669 35.944H241.605V37.256H240.357L239.493 38.104V48.712L240.357 49.56H241.605V50.872H239.669L238.005 49.208ZM242.761 44.264H247.753V45.576H242.761V44.264ZM251.595 39.4L249.115 40.68V39.272L251.803 37.8H253.131V49H251.595V39.4ZM259.421 47.48V42.552L260.941 41.032H264.957L266.493 42.568V43.704H265.005V43.048L264.285 42.328H261.629L260.909 43.048V46.984L261.629 47.704H264.285L265.005 46.984V46.328H266.493V47.464L264.957 49H260.941L259.421 47.48ZM268.253 41.032H269.677V42.424L271.053 41.032H273.181V42.328H271.389L269.741 43.992V49H268.253V41.032ZM273.968 47.48V42.568L275.504 41.032H279.68L281.216 42.568V45.48H275.456V47.016L276.16 47.72H279.024L279.728 47.032V46.488H281.2V47.48L279.696 49H275.488L273.968 47.48ZM279.728 44.312V43.016L279.008 42.312H276.176L275.456 43.016V44.312H279.728ZM283.062 47.464V42.568L284.598 41.032H287.702L288.886 42.072V37.576H290.374V49H288.95V47.624L287.574 49H284.598L283.062 47.464ZM287.334 47.704L288.886 46.136V43.56L287.494 42.328H285.286L284.55 43.064V46.968L285.286 47.704H287.334ZM292.532 39.256V38.456L293.092 37.88H293.94L294.5 38.456V39.256L293.94 39.832H293.092L292.532 39.256ZM292.772 41.032H294.26V49H292.772V41.032ZM297.379 47.48V42.312H295.939V41.032H297.411V38.44H298.867V41.032H301.347V42.328H298.867V47L299.587 47.704H301.347V49H298.915L297.379 47.48ZM302.266 50.872V49.56H303.514L304.378 48.712V38.104L303.514 37.256H302.266V35.944H304.202L305.866 37.608V49.208L304.202 50.872H302.266Z" fill="#89CED8"/>
<path d="M31.2926 93.08V92.44H32.0426V92.83L32.5226 93.32H34.9226L35.4226 92.81V91.24L34.9226 90.75H32.2326L31.3126 89.83V87.92L32.2326 87H35.1726L36.0926 87.92V88.57H35.3526V88.17L34.8526 87.68H32.5626L32.0626 88.17V89.58L32.5626 90.07H35.2526L36.1726 90.99V93.06L35.2326 94H32.2126L31.2926 93.08ZM37.3766 93.08V89.94L38.2966 89.02H40.8066L41.7366 89.94V91.73H38.1166V92.85L38.6166 93.34H40.4866L40.9866 92.85V92.47H41.7266V93.08L40.8066 94H38.2966L37.3766 93.08ZM40.9966 91.09V90.17L40.4966 89.68H38.6166L38.1166 90.17V91.09H40.9966ZM42.932 93.18V91.91L43.752 91.1H46.412V90.15L45.912 89.66H44.212L43.712 90.15V90.56H42.972V89.94L43.892 89.02H46.222L47.142 89.94V94H46.432V93.12L45.512 94H43.752L42.932 93.18ZM45.362 93.36L46.412 92.35V91.74H44.072L43.672 92.13V92.97L44.072 93.36H45.362ZM48.5898 89.02H49.3098V89.91L50.1998 89.02H51.4898V89.68H50.3898L49.3298 90.74V94H48.5898V89.02ZM52.0836 93.08V89.94L53.0036 89.02H55.4036L56.3236 89.94V90.55H55.5836V90.17L55.0836 89.68H53.3236L52.8236 90.17V92.85L53.3236 93.34H55.0836L55.5836 92.85V92.47H56.3236V93.08L55.4036 94H53.0036L52.0836 93.08ZM57.5254 86.86H58.2654V90.06L59.3054 89.02H60.8554L61.7754 89.94V94H61.0354V90.17L60.5354 89.68H59.5054L58.2654 90.92V94H57.5254V86.86ZM67.3399 87.67H65.2199V87H70.2199V87.67H68.0999V94H67.3399V87.67ZM70.2672 93.08V89.94L71.1872 89.02H73.6972L74.6272 89.94V91.73H71.0072V92.85L71.5072 93.34H73.3772L73.8772 92.85V92.47H74.6172V93.08L73.6972 94H71.1872L70.2672 93.08ZM73.8872 91.09V90.17L73.3872 89.68H71.5072L71.0072 90.17V91.09H73.8872ZM75.9727 89.02H76.6927V89.91L77.5827 89.02H78.8727V89.68H77.7727L76.7127 90.74V94H75.9727V89.02ZM79.8203 89.02H80.5403V89.98L81.5003 89.02H82.6903L83.4703 89.8L84.2503 89.02H85.8203L86.7403 89.94V94H86.0003V90.17L85.5003 89.68H84.4003L83.7003 90.38V94H82.9803V90.17L82.4803 89.68H81.6403L80.5603 90.76V94H79.8203V89.02ZM90.6809 94.25V86.76L91.6009 85.84H92.7209V86.5H91.9209L91.4209 86.99V94.02L91.9209 94.51H92.7209V95.17H91.6009L90.6809 94.25ZM93.6168 93.08V89.94L94.5368 89.02H97.0968L98.0168 89.94V93.08L97.0968 94H94.5368L93.6168 93.08ZM96.7768 93.34L97.2768 92.85V90.17L96.7768 89.68H94.8568L94.3568 90.17V92.85L94.8568 93.34H96.7768ZM99.4199 89.02H100.14V90.08L101.2 89.02H102.73L103.65 89.94V94H102.91V90.17L102.41 89.68H101.4L100.16 90.92V94H99.4199V89.02ZM105.004 93.08V89.94L105.924 89.02H108.434L109.364 89.94V91.73H105.744V92.85L106.244 93.34H108.114L108.614 92.85V92.47H109.354V93.08L108.434 94H105.924L105.004 93.08ZM108.624 91.09V90.17L108.124 89.68H106.244L105.744 90.17V91.09H108.624ZM113.15 89.02H113.87V89.91L114.76 89.02H116.63L117.55 89.94V93.08L116.63 94H114.71L113.89 93.28V96.12H113.15V89.02ZM116.31 93.34L116.81 92.85V90.17L116.31 89.68H114.96L113.89 90.75V92.47L114.85 93.34H116.31ZM118.851 93.08V89.94L119.771 89.02H122.281L123.211 89.94V91.73H119.591V92.85L120.091 93.34H121.961L122.461 92.85V92.47H123.201V93.08L122.281 94H119.771L118.851 93.08ZM122.471 91.09V90.17L121.971 89.68H120.091L119.591 90.17V91.09H122.471ZM124.557 89.02H125.277V89.91L126.167 89.02H127.457V89.68H126.357L125.297 90.74V94H124.557V89.02ZM130.596 93.18V92.56H131.336V92.97L131.736 93.36H133.576L133.976 92.97V92.2L133.576 91.8H131.426L130.636 91.01V89.84L131.456 89.02H133.796L134.616 89.84V90.46H133.876V90.05L133.476 89.66H131.776L131.376 90.05V90.78L131.776 91.18H133.896L134.716 92V93.18L133.896 94H131.416L130.596 93.18ZM135.863 93.08V89.94L136.783 89.02H139.293L140.223 89.94V91.73H136.603V92.85L137.103 93.34H138.973L139.473 92.85V92.47H140.213V93.08L139.293 94H136.783L135.863 93.08ZM139.483 91.09V90.17L138.983 89.68H137.103L136.603 90.17V91.09H139.483ZM141.418 93.18V91.91L142.238 91.1H144.898V90.15L144.398 89.66H142.698L142.198 90.15V90.56H141.458V89.94L142.378 89.02H144.708L145.628 89.94V94H144.918V93.12L143.998 94H142.238L141.418 93.18ZM143.848 93.36L144.898 92.35V91.74H142.558L142.158 92.13V92.97L142.558 93.36H143.848ZM147.076 89.02H147.796V89.91L148.686 89.02H149.976V89.68H148.876L147.816 90.74V94H147.076V89.02ZM150.57 93.08V89.94L151.49 89.02H153.89L154.81 89.94V90.55H154.07V90.17L153.57 89.68H151.81L151.31 90.17V92.85L151.81 93.34H153.57L154.07 92.85V92.47H154.81V93.08L153.89 94H151.49L150.57 93.08ZM156.012 86.86H156.752V90.06L157.792 89.02H159.342L160.262 89.94V94H159.522V90.17L159.022 89.68H157.992L156.752 90.92V94H156.012V86.86ZM161.215 95.17V94.51H162.015L162.515 94.02V86.99L162.015 86.5H161.215V85.84H162.335L163.255 86.76V94.25L162.335 95.17H161.215Z" fill="#FBFCF4"/>
<rect x="23.25" y="101.5" width="674.5" height="36.25" rx="3.75" fill="#FBFCF4"/>
<path d="M42.7188 119.094V120.422H37.625V123.797H43.3906V125.125H36.2188V114.656H43.3906V115.984H37.625V119.094H42.7188ZM53 117.312L49.7656 121.062L53.0469 125.125H51.3906L48.9688 121.891L46.5312 125.125H44.875L48.1562 121.062L44.9219 117.312H46.5781L48.9688 120.125L51.3438 117.312H53ZM55.625 116.969C55.9271 116.969 56.1823 117.078 56.3906 117.297C56.6094 117.505 56.7188 117.76 56.7188 118.062C56.7188 118.354 56.6094 118.609 56.3906 118.828C56.1823 119.047 55.9271 119.156 55.625 119.156C55.3229 119.156 55.0625 119.047 54.8438 118.828C54.6354 118.609 54.5312 118.354 54.5312 118.062C54.5312 117.76 54.6354 117.505 54.8438 117.297C55.0625 117.078 55.3229 116.969 55.625 116.969ZM55.625 123.219C55.9271 123.219 56.1823 123.328 56.3906 123.547C56.6094 123.755 56.7188 124.01 56.7188 124.312C56.7188 124.604 56.6094 124.859 56.3906 125.078C56.1823 125.297 55.9271 125.406 55.625 125.406C55.3229 125.406 55.0625 125.297 54.8438 125.078C54.6354 124.859 54.5312 124.604 54.5312 124.312C54.5312 124.01 54.6354 123.755 54.8438 123.547C55.0625 123.328 55.3229 123.219 55.625 123.219ZM65.2656 117.312V118.875C65.5677 118.354 65.9323 117.938 66.3594 117.625C66.7865 117.312 67.224 117.156 67.6719 117.156C67.974 117.156 68.2448 117.208 68.4844 117.312V118.797C68.151 118.599 67.8177 118.5 67.4844 118.5C66.9531 118.5 66.5208 118.688 66.1875 119.062C65.8646 119.438 65.5573 119.885 65.2656 120.406V125.125H63.9844V117.312H65.2656ZM73.3438 117.156C74.1458 117.156 74.8125 117.323 75.3438 117.656C75.875 117.99 76.2708 118.443 76.5312 119.016C76.8021 119.589 76.9375 120.234 76.9375 120.953V121.719H70.9375C71 122.156 71.151 122.557 71.3906 122.922C71.6302 123.286 71.9427 123.578 72.3281 123.797C72.7135 124.005 73.1562 124.109 73.6562 124.109C74.2188 124.109 74.7448 123.969 75.2344 123.688C75.724 123.396 76.1354 123.078 76.4688 122.734L76.4531 124.125C76.3073 124.302 76.0885 124.49 75.7969 124.688C75.5156 124.875 75.1875 125.031 74.8125 125.156C74.4479 125.292 74.0625 125.359 73.6562 125.359C72.8646 125.359 72.1615 125.172 71.5469 124.797C70.9323 124.422 70.4479 123.927 70.0938 123.312C69.75 122.688 69.5781 122.005 69.5781 121.266C69.5781 120.526 69.7396 119.844 70.0625 119.219C70.3854 118.594 70.8281 118.094 71.3906 117.719C71.9635 117.344 72.6146 117.156 73.3438 117.156ZM73.3438 118.406C72.6979 118.406 72.1667 118.625 71.75 119.062C71.3333 119.49 71.0729 120.01 70.9688 120.625H75.6719C75.6198 120.115 75.474 119.698 75.2344 119.375C75.0052 119.052 74.724 118.812 74.3906 118.656C74.0573 118.49 73.7083 118.406 73.3438 118.406ZM81.375 117.156C81.8333 117.156 82.2604 117.224 82.6562 117.359C83.0521 117.484 83.3385 117.615 83.5156 117.75V119.125C83.2969 118.958 83 118.797 82.625 118.641C82.25 118.484 81.8646 118.406 81.4688 118.406C80.9792 118.406 80.6094 118.521 80.3594 118.75C80.1198 118.979 80 119.219 80 119.469C80 119.667 80.0677 119.87 80.2031 120.078C80.349 120.276 80.599 120.438 80.9531 120.562L82.2656 121.031C82.776 121.208 83.1562 121.464 83.4062 121.797C83.6562 122.13 83.7812 122.521 83.7812 122.969C83.7812 123.406 83.6562 123.807 83.4062 124.172C83.1667 124.536 82.8281 124.828 82.3906 125.047C81.9635 125.255 81.4688 125.359 80.9062 125.359C80.6042 125.359 80.2865 125.318 79.9531 125.234C79.6302 125.161 79.3385 125.073 79.0781 124.969C78.8177 124.854 78.625 124.755 78.5 124.672V123.297C78.6458 123.401 78.849 123.521 79.1094 123.656C79.3802 123.781 79.6667 123.891 79.9688 123.984C80.2708 124.068 80.5521 124.109 80.8125 124.109C81.3021 124.109 81.6875 124 81.9688 123.781C82.2604 123.562 82.4062 123.292 82.4062 122.969C82.4062 122.719 82.3073 122.521 82.1094 122.375C81.9219 122.229 81.6458 122.089 81.2812 121.953L80.125 121.531C79.5208 121.302 79.1198 121.016 78.9219 120.672C78.724 120.318 78.625 119.917 78.625 119.469C78.625 118.802 78.875 118.25 79.375 117.812C79.875 117.375 80.5417 117.156 81.375 117.156ZM87.8906 115.062V117.312H90.1719V118.516H87.8906V123.094C87.8906 123.417 87.974 123.672 88.1406 123.859C88.3073 124.047 88.5625 124.141 88.9062 124.141C89.2188 124.141 89.4792 124.104 89.6875 124.031C89.8958 123.948 90.0781 123.859 90.2344 123.766V124.812C90.026 124.979 89.8021 125.109 89.5625 125.203C89.3333 125.307 89.0208 125.359 88.625 125.359C87.9583 125.359 87.4531 125.161 87.1094 124.766C86.776 124.359 86.6094 123.823 86.6094 123.156V118.516H85.1094V118.141C85.6198 117.911 86.0469 117.536 86.3906 117.016C86.7344 116.484 87.0365 115.833 87.2969 115.062H87.8906ZM95.7188 117.156C96.1667 117.156 96.6198 117.266 97.0781 117.484C97.5469 117.693 97.9479 117.984 98.2812 118.359V117.312H99.5625V125.125H98.2812V123.797C98.0104 124.214 97.6406 124.578 97.1719 124.891C96.7135 125.203 96.1875 125.359 95.5938 125.359C94.9271 125.359 94.3177 125.193 93.7656 124.859C93.2135 124.516 92.7708 124.042 92.4375 123.438C92.1146 122.833 91.9531 122.135 91.9531 121.344C91.9531 120.479 92.1146 119.734 92.4375 119.109C92.7708 118.484 93.224 118.005 93.7969 117.672C94.3698 117.328 95.0104 117.156 95.7188 117.156ZM95.9531 118.406C95.3906 118.406 94.9115 118.547 94.5156 118.828C94.1198 119.109 93.8125 119.474 93.5938 119.922C93.3854 120.359 93.2812 120.833 93.2812 121.344C93.2812 121.844 93.3854 122.307 93.5938 122.734C93.8021 123.151 94.0938 123.484 94.4688 123.734C94.8542 123.984 95.2969 124.109 95.7969 124.109C96.276 124.109 96.7031 123.984 97.0781 123.734C97.4531 123.484 97.75 123.141 97.9688 122.703C98.1875 122.255 98.2917 121.755 98.2812 121.203L98.2656 119.703C97.9427 119.297 97.5938 118.979 97.2188 118.75C96.8542 118.521 96.4323 118.406 95.9531 118.406ZM108.609 117.312V121.938C108.609 122.625 108.464 123.219 108.172 123.719C107.88 124.219 107.484 124.604 106.984 124.875C106.484 125.146 105.922 125.281 105.297 125.281C104.672 125.281 104.109 125.146 103.609 124.875C103.109 124.604 102.714 124.219 102.422 123.719C102.13 123.219 101.984 122.625 101.984 121.938V117.312H103.312V121.938C103.312 122.615 103.51 123.135 103.906 123.5C104.312 123.854 104.776 124.031 105.297 124.031C105.818 124.031 106.276 123.854 106.672 123.5C107.078 123.135 107.281 122.615 107.281 121.938V117.312H108.609ZM112.312 117.312V118.875C112.615 118.354 112.979 117.938 113.406 117.625C113.833 117.312 114.271 117.156 114.719 117.156C115.021 117.156 115.292 117.208 115.531 117.312V118.797C115.198 118.599 114.865 118.5 114.531 118.5C114 118.5 113.568 118.688 113.234 119.062C112.911 119.438 112.604 119.885 112.312 120.406V125.125H111.031V117.312H112.312ZM120.391 117.156C120.839 117.156 121.292 117.266 121.75 117.484C122.219 117.693 122.62 117.984 122.953 118.359V117.312H124.234V125.125H122.953V123.797C122.682 124.214 122.312 124.578 121.844 124.891C121.385 125.203 120.859 125.359 120.266 125.359C119.599 125.359 118.99 125.193 118.438 124.859C117.885 124.516 117.443 124.042 117.109 123.438C116.786 122.833 116.625 122.135 116.625 121.344C116.625 120.479 116.786 119.734 117.109 119.109C117.443 118.484 117.896 118.005 118.469 117.672C119.042 117.328 119.682 117.156 120.391 117.156ZM120.625 118.406C120.062 118.406 119.583 118.547 119.188 118.828C118.792 119.109 118.484 119.474 118.266 119.922C118.057 120.359 117.953 120.833 117.953 121.344C117.953 121.844 118.057 122.307 118.266 122.734C118.474 123.151 118.766 123.484 119.141 123.734C119.526 123.984 119.969 124.109 120.469 124.109C120.948 124.109 121.375 123.984 121.75 123.734C122.125 123.484 122.422 123.141 122.641 122.703C122.859 122.255 122.964 121.755 122.953 121.203L122.938 119.703C122.615 119.297 122.266 118.979 121.891 118.75C121.526 118.521 121.104 118.406 120.625 118.406ZM128.172 117.312V118.547C128.339 118.339 128.552 118.13 128.812 117.922C129.073 117.703 129.365 117.521 129.688 117.375C130.021 117.229 130.365 117.156 130.719 117.156C131.25 117.156 131.734 117.276 132.172 117.516C132.609 117.745 132.958 118.099 133.219 118.578C133.479 119.047 133.609 119.641 133.609 120.359V125.125H132.328L132.312 120.484C132.312 119.807 132.161 119.292 131.859 118.938C131.568 118.583 131.115 118.406 130.5 118.406C130.083 118.406 129.667 118.562 129.25 118.875C128.844 119.177 128.484 119.531 128.172 119.938V125.125H126.891V117.312H128.172ZM138.188 115.062V117.312H140.469V118.516H138.188V123.094C138.188 123.417 138.271 123.672 138.438 123.859C138.604 124.047 138.859 124.141 139.203 124.141C139.516 124.141 139.776 124.104 139.984 124.031C140.193 123.948 140.375 123.859 140.531 123.766V124.812C140.323 124.979 140.099 125.109 139.859 125.203C139.63 125.307 139.318 125.359 138.922 125.359C138.255 125.359 137.75 125.161 137.406 124.766C137.073 124.359 136.906 123.823 136.906 123.156V118.516H135.406V118.141C135.917 117.911 136.344 117.536 136.688 117.016C137.031 116.484 137.333 115.833 137.594 115.062H138.188ZM145.125 117.156C145.583 117.156 146.01 117.224 146.406 117.359C146.802 117.484 147.089 117.615 147.266 117.75V119.125C147.047 118.958 146.75 118.797 146.375 118.641C146 118.484 145.615 118.406 145.219 118.406C144.729 118.406 144.359 118.521 144.109 118.75C143.87 118.979 143.75 119.219 143.75 119.469C143.75 119.667 143.818 119.87 143.953 120.078C144.099 120.276 144.349 120.438 144.703 120.562L146.016 121.031C146.526 121.208 146.906 121.464 147.156 121.797C147.406 122.13 147.531 122.521 147.531 122.969C147.531 123.406 147.406 123.807 147.156 124.172C146.917 124.536 146.578 124.828 146.141 125.047C145.714 125.255 145.219 125.359 144.656 125.359C144.354 125.359 144.036 125.318 143.703 125.234C143.38 125.161 143.089 125.073 142.828 124.969C142.568 124.854 142.375 124.755 142.25 124.672V123.297C142.396 123.401 142.599 123.521 142.859 123.656C143.13 123.781 143.417 123.891 143.719 123.984C144.021 124.068 144.302 124.109 144.562 124.109C145.052 124.109 145.438 124 145.719 123.781C146.01 123.562 146.156 123.292 146.156 122.969C146.156 122.719 146.057 122.521 145.859 122.375C145.672 122.229 145.396 122.089 145.031 121.953L143.875 121.531C143.271 121.302 142.87 121.016 142.672 120.672C142.474 120.318 142.375 119.917 142.375 119.469C142.375 118.802 142.625 118.25 143.125 117.812C143.625 117.375 144.292 117.156 145.125 117.156ZM150.031 123.281L151.312 123.719L149.906 127.891L148.938 127.641L150.031 123.281ZM162.547 117.156C163.224 117.156 163.833 117.323 164.375 117.656C164.927 117.979 165.365 118.438 165.688 119.031C166.021 119.615 166.188 120.302 166.188 121.094C166.188 121.948 166.021 122.698 165.688 123.344C165.365 123.979 164.917 124.474 164.344 124.828C163.781 125.182 163.141 125.359 162.422 125.359C161.974 125.359 161.516 125.24 161.047 125C160.589 124.76 160.193 124.453 159.859 124.078V128.875H158.578V117.312H159.859V118.641C160.13 118.224 160.495 117.875 160.953 117.594C161.422 117.302 161.953 117.156 162.547 117.156ZM162.344 118.406C161.875 118.406 161.448 118.526 161.062 118.766C160.688 119.005 160.391 119.339 160.172 119.766C159.964 120.182 159.859 120.672 159.859 121.234L159.875 122.734C160.208 123.141 160.557 123.474 160.922 123.734C161.286 123.984 161.708 124.109 162.188 124.109C162.75 124.109 163.229 123.964 163.625 123.672C164.021 123.38 164.323 123.005 164.531 122.547C164.75 122.078 164.859 121.594 164.859 121.094C164.859 120.583 164.755 120.13 164.547 119.734C164.339 119.328 164.047 119.005 163.672 118.766C163.297 118.526 162.854 118.406 162.344 118.406ZM171.516 117.156C171.964 117.156 172.417 117.266 172.875 117.484C173.344 117.693 173.745 117.984 174.078 118.359V117.312H175.359V125.125H174.078V123.797C173.807 124.214 173.438 124.578 172.969 124.891C172.51 125.203 171.984 125.359 171.391 125.359C170.724 125.359 170.115 125.193 169.562 124.859C169.01 124.516 168.568 124.042 168.234 123.438C167.911 122.833 167.75 122.135 167.75 121.344C167.75 120.479 167.911 119.734 168.234 119.109C168.568 118.484 169.021 118.005 169.594 117.672C170.167 117.328 170.807 117.156 171.516 117.156ZM171.75 118.406C171.188 118.406 170.708 118.547 170.312 118.828C169.917 119.109 169.609 119.474 169.391 119.922C169.182 120.359 169.078 120.833 169.078 121.344C169.078 121.844 169.182 122.307 169.391 122.734C169.599 123.151 169.891 123.484 170.266 123.734C170.651 123.984 171.094 124.109 171.594 124.109C172.073 124.109 172.5 123.984 172.875 123.734C173.25 123.484 173.547 123.141 173.766 122.703C173.984 122.255 174.089 121.755 174.078 121.203L174.062 119.703C173.74 119.297 173.391 118.979 173.016 118.75C172.651 118.521 172.229 118.406 171.75 118.406ZM179.266 113.562C179.568 113.562 179.818 113.672 180.016 113.891C180.224 114.099 180.328 114.344 180.328 114.625C180.328 114.896 180.224 115.141 180.016 115.359C179.818 115.578 179.568 115.688 179.266 115.688C178.964 115.688 178.708 115.578 178.5 115.359C178.302 115.141 178.203 114.896 178.203 114.625C178.203 114.344 178.302 114.099 178.5 113.891C178.708 113.672 178.964 113.562 179.266 113.562ZM180.062 117.312V125.125H178.781V118.516H177.547V117.312H180.062ZM184.109 117.312V118.547C184.276 118.339 184.49 118.13 184.75 117.922C185.01 117.703 185.302 117.521 185.625 117.375C185.958 117.229 186.302 117.156 186.656 117.156C187.188 117.156 187.672 117.276 188.109 117.516C188.547 117.745 188.896 118.099 189.156 118.578C189.417 119.047 189.547 119.641 189.547 120.359V125.125H188.266L188.25 120.484C188.25 119.807 188.099 119.292 187.797 118.938C187.505 118.583 187.052 118.406 186.438 118.406C186.021 118.406 185.604 118.562 185.188 118.875C184.781 119.177 184.422 119.531 184.109 119.938V125.125H182.828V117.312H184.109ZM194.125 115.062V117.312H196.406V118.516H194.125V123.094C194.125 123.417 194.208 123.672 194.375 123.859C194.542 124.047 194.797 124.141 195.141 124.141C195.453 124.141 195.714 124.104 195.922 124.031C196.13 123.948 196.312 123.859 196.469 123.766V124.812C196.26 124.979 196.036 125.109 195.797 125.203C195.568 125.307 195.255 125.359 194.859 125.359C194.193 125.359 193.688 125.161 193.344 124.766C193.01 124.359 192.844 123.823 192.844 123.156V118.516H191.344V118.141C191.854 117.911 192.281 117.536 192.625 117.016C192.969 116.484 193.271 115.833 193.531 115.062H194.125ZM201.953 117.156C202.755 117.156 203.422 117.323 203.953 117.656C204.484 117.99 204.88 118.443 205.141 119.016C205.411 119.589 205.547 120.234 205.547 120.953V121.719H199.547C199.609 122.156 199.76 122.557 200 122.922C200.24 123.286 200.552 123.578 200.938 123.797C201.323 124.005 201.766 124.109 202.266 124.109C202.828 124.109 203.354 123.969 203.844 123.688C204.333 123.396 204.745 123.078 205.078 122.734L205.062 124.125C204.917 124.302 204.698 124.49 204.406 124.688C204.125 124.875 203.797 125.031 203.422 125.156C203.057 125.292 202.672 125.359 202.266 125.359C201.474 125.359 200.771 125.172 200.156 124.797C199.542 124.422 199.057 123.927 198.703 123.312C198.359 122.688 198.188 122.005 198.188 121.266C198.188 120.526 198.349 119.844 198.672 119.219C198.995 118.594 199.438 118.094 200 117.719C200.573 117.344 201.224 117.156 201.953 117.156ZM201.953 118.406C201.307 118.406 200.776 118.625 200.359 119.062C199.943 119.49 199.682 120.01 199.578 120.625H204.281C204.229 120.115 204.083 119.698 203.844 119.375C203.615 119.052 203.333 118.812 203 118.656C202.667 118.49 202.318 118.406 201.953 118.406ZM208.938 117.312V118.875C209.24 118.354 209.604 117.938 210.031 117.625C210.458 117.312 210.896 117.156 211.344 117.156C211.646 117.156 211.917 117.208 212.156 117.312V118.797C211.823 118.599 211.49 118.5 211.156 118.5C210.625 118.5 210.193 118.688 209.859 119.062C209.536 119.438 209.229 119.885 208.938 120.406V125.125H207.656V117.312H208.938ZM216.125 117.156C216.583 117.156 217.01 117.224 217.406 117.359C217.802 117.484 218.089 117.615 218.266 117.75V119.125C218.047 118.958 217.75 118.797 217.375 118.641C217 118.484 216.615 118.406 216.219 118.406C215.729 118.406 215.359 118.521 215.109 118.75C214.87 118.979 214.75 119.219 214.75 119.469C214.75 119.667 214.818 119.87 214.953 120.078C215.099 120.276 215.349 120.438 215.703 120.562L217.016 121.031C217.526 121.208 217.906 121.464 218.156 121.797C218.406 122.13 218.531 122.521 218.531 122.969C218.531 123.406 218.406 123.807 218.156 124.172C217.917 124.536 217.578 124.828 217.141 125.047C216.714 125.255 216.219 125.359 215.656 125.359C215.354 125.359 215.036 125.318 214.703 125.234C214.38 125.161 214.089 125.073 213.828 124.969C213.568 124.854 213.375 124.755 213.25 124.672V123.297C213.396 123.401 213.599 123.521 213.859 123.656C214.13 123.781 214.417 123.891 214.719 123.984C215.021 124.068 215.302 124.109 215.562 124.109C216.052 124.109 216.438 124 216.719 123.781C217.01 123.562 217.156 123.292 217.156 122.969C217.156 122.719 217.057 122.521 216.859 122.375C216.672 122.229 216.396 122.089 216.031 121.953L214.875 121.531C214.271 121.302 213.87 121.016 213.672 120.672C213.474 120.318 213.375 119.917 213.375 119.469C213.375 118.802 213.625 118.25 214.125 117.812C214.625 117.375 215.292 117.156 216.125 117.156ZM221.031 123.281L222.312 123.719L220.906 127.891L219.938 127.641L221.031 123.281ZM232.797 117.156C233.599 117.156 234.266 117.323 234.797 117.656C235.328 117.99 235.724 118.443 235.984 119.016C236.255 119.589 236.391 120.234 236.391 120.953V121.719H230.391C230.453 122.156 230.604 122.557 230.844 122.922C231.083 123.286 231.396 123.578 231.781 123.797C232.167 124.005 232.609 124.109 233.109 124.109C233.672 124.109 234.198 123.969 234.688 123.688C235.177 123.396 235.589 123.078 235.922 122.734L235.906 124.125C235.76 124.302 235.542 124.49 235.25 124.688C234.969 124.875 234.641 125.031 234.266 125.156C233.901 125.292 233.516 125.359 233.109 125.359C232.318 125.359 231.615 125.172 231 124.797C230.385 124.422 229.901 123.927 229.547 123.312C229.203 122.688 229.031 122.005 229.031 121.266C229.031 120.526 229.193 119.844 229.516 119.219C229.839 118.594 230.281 118.094 230.844 117.719C231.417 117.344 232.068 117.156 232.797 117.156ZM232.797 118.406C232.151 118.406 231.62 118.625 231.203 119.062C230.786 119.49 230.526 120.01 230.422 120.625H235.125C235.073 120.115 234.927 119.698 234.688 119.375C234.458 119.052 234.177 118.812 233.844 118.656C233.51 118.49 233.161 118.406 232.797 118.406ZM240.656 115.062V117.312H242.938V118.516H240.656V123.094C240.656 123.417 240.74 123.672 240.906 123.859C241.073 124.047 241.328 124.141 241.672 124.141C241.984 124.141 242.245 124.104 242.453 124.031C242.661 123.948 242.844 123.859 243 123.766V124.812C242.792 124.979 242.568 125.109 242.328 125.203C242.099 125.307 241.786 125.359 241.391 125.359C240.724 125.359 240.219 125.161 239.875 124.766C239.542 124.359 239.375 123.823 239.375 123.156V118.516H237.875V118.141C238.385 117.911 238.812 117.536 239.156 117.016C239.5 116.484 239.802 115.833 240.062 115.062H240.656ZM248.797 117.156C249.37 117.156 249.865 117.25 250.281 117.438C250.698 117.615 250.984 117.776 251.141 117.922V119.219C250.849 119 250.516 118.812 250.141 118.656C249.766 118.49 249.318 118.406 248.797 118.406C248.245 118.406 247.76 118.542 247.344 118.812C246.927 119.073 246.604 119.422 246.375 119.859C246.156 120.286 246.047 120.755 246.047 121.266C246.047 121.766 246.156 122.234 246.375 122.672C246.604 123.099 246.927 123.448 247.344 123.719C247.76 123.979 248.245 124.109 248.797 124.109C249.318 124.109 249.766 124.031 250.141 123.875C250.516 123.708 250.849 123.516 251.141 123.297V124.594C250.984 124.75 250.698 124.917 250.281 125.094C249.865 125.271 249.37 125.359 248.797 125.359C248.005 125.359 247.302 125.172 246.688 124.797C246.073 124.422 245.589 123.927 245.234 123.312C244.891 122.688 244.719 122.005 244.719 121.266C244.719 120.526 244.891 119.844 245.234 119.219C245.589 118.594 246.073 118.094 246.688 117.719C247.302 117.344 248.005 117.156 248.797 117.156Z" fill="#B1B1B2"/>
<rect x="23.25" y="101.5" width="674.5" height="36.25" rx="3.75" stroke="#EDEEC9" stroke-width="2.5"/>
<path d="M31.4426 166H32.2026V172.33H35.7626V173H31.4426V166ZM36.566 172.08V168.94L37.486 168.02H40.046L40.966 168.94V172.08L40.046 173H37.486L36.566 172.08ZM39.726 172.34L40.226 171.85V169.17L39.726 168.68H37.806L37.306 169.17V171.85L37.806 172.34H39.726ZM42.2691 172.08V168.94L43.1891 168.02H45.5891L46.5091 168.94V169.55H45.7691V169.17L45.2691 168.68H43.5091L43.0091 169.17V171.85L43.5091 172.34H45.2691L45.7691 171.85V171.47H46.5091V172.08L45.5891 173H43.1891L42.2691 172.08ZM47.5609 172.18V170.91L48.3809 170.1H51.0409V169.15L50.5409 168.66H48.8409L48.3409 169.15V169.56H47.6009V168.94L48.5209 168.02H50.8509L51.7709 168.94V173H51.0609V172.12L50.1409 173H48.3809L47.5609 172.18ZM49.9909 172.36L51.0409 171.35V170.74H48.7009L48.3009 171.13V171.97L48.7009 172.36H49.9909ZM53.5711 172.08V168.67H52.6711V168.02H53.5911V166.4H54.3111V168.02H55.8711V168.67H54.3111V171.85L54.8111 172.35H55.8711V173H54.4911L53.5711 172.08ZM56.9676 166.88V166.44L57.2676 166.14H57.7076L58.0076 166.44V166.88L57.7076 167.18H57.2676L56.9676 166.88ZM57.1176 168.02H57.8576V173H57.1176V168.02ZM59.359 172.08V168.94L60.279 168.02H62.839L63.759 168.94V172.08L62.839 173H60.279L59.359 172.08ZM62.519 172.34L63.019 171.85V169.17L62.519 168.68H60.599L60.099 169.17V171.85L60.599 172.34H62.519ZM65.1621 168.02H65.8821V169.08L66.9421 168.02H68.4721L69.3921 168.94V173H68.6521V169.17L68.1521 168.68H67.1421L65.9021 169.92V173H65.1621V168.02Z" fill="#FBFCF4"/>
<rect x="23.25" y="180.5" width="674.5" height="36.25" rx="3.75" fill="#FBFCF4"/>
<path d="M42.125 198.484V199.812H37.625V204.125H36.2188V193.656H43.0625V194.984H37.625V198.484H42.125ZM49.2812 196.156C50.0729 196.156 50.776 196.344 51.3906 196.719C52.0052 197.094 52.4844 197.594 52.8281 198.219C53.1823 198.844 53.3594 199.526 53.3594 200.266C53.3594 201.005 53.1823 201.688 52.8281 202.312C52.4844 202.927 52.0052 203.422 51.3906 203.797C50.776 204.172 50.0729 204.359 49.2812 204.359C48.4896 204.359 47.7865 204.172 47.1719 203.797C46.5573 203.422 46.0729 202.927 45.7188 202.312C45.375 201.688 45.2031 201.005 45.2031 200.266C45.2031 199.526 45.375 198.844 45.7188 198.219C46.0729 197.594 46.5573 197.094 47.1719 196.719C47.7865 196.344 48.4896 196.156 49.2812 196.156ZM49.2812 197.406C48.7292 197.406 48.2448 197.542 47.8281 197.812C47.4115 198.073 47.0885 198.422 46.8594 198.859C46.6406 199.286 46.5312 199.755 46.5312 200.266C46.5312 200.766 46.6406 201.234 46.8594 201.672C47.0885 202.099 47.4115 202.448 47.8281 202.719C48.2448 202.979 48.7292 203.109 49.2812 203.109C49.8438 203.109 50.3281 202.979 50.7344 202.719C51.151 202.448 51.4688 202.099 51.6875 201.672C51.9167 201.234 52.0312 200.766 52.0312 200.266C52.0312 199.755 51.9167 199.286 51.6875 198.859C51.4688 198.422 51.151 198.073 50.7344 197.812C50.3281 197.542 49.8438 197.406 49.2812 197.406ZM56.75 196.312V197.875C57.0521 197.354 57.4167 196.938 57.8438 196.625C58.2708 196.312 58.7083 196.156 59.1562 196.156C59.4583 196.156 59.7292 196.208 59.9688 196.312V197.797C59.6354 197.599 59.3021 197.5 58.9688 197.5C58.4375 197.5 58.0052 197.688 57.6719 198.062C57.349 198.438 57.0417 198.885 56.75 199.406V204.125H55.4688V196.312H56.75ZM62.8906 196.312V197.312C63.1406 197.031 63.4583 196.771 63.8438 196.531C64.2396 196.281 64.7031 196.156 65.2344 196.156C65.7969 196.156 66.3229 196.292 66.8125 196.562C67.3021 196.823 67.6771 197.219 67.9375 197.75C68.3021 197.312 68.6979 196.938 69.125 196.625C69.5521 196.312 70.0521 196.156 70.625 196.156C71.1562 196.156 71.651 196.276 72.1094 196.516C72.5781 196.745 72.9531 197.099 73.2344 197.578C73.526 198.047 73.6719 198.641 73.6719 199.359V204.125H72.3906L72.375 199.484C72.375 198.807 72.1979 198.292 71.8438 197.938C71.5 197.583 71.0208 197.406 70.4062 197.406C69.9583 197.406 69.5677 197.547 69.2344 197.828C68.901 198.109 68.5833 198.438 68.2812 198.812V204.125H67L66.9844 199.484C66.9844 198.807 66.8073 198.292 66.4531 197.938C66.1094 197.583 65.6302 197.406 65.0156 197.406C64.5885 197.406 64.1979 197.531 63.8438 197.781C63.5 198.031 63.1823 198.333 62.8906 198.688V204.125H61.6094V196.312H62.8906ZM79.3125 196.156C79.7604 196.156 80.2135 196.266 80.6719 196.484C81.1406 196.693 81.5417 196.984 81.875 197.359V196.312H83.1562V204.125H81.875V202.797C81.6042 203.214 81.2344 203.578 80.7656 203.891C80.3073 204.203 79.7812 204.359 79.1875 204.359C78.5208 204.359 77.9115 204.193 77.3594 203.859C76.8073 203.516 76.3646 203.042 76.0312 202.438C75.7083 201.833 75.5469 201.135 75.5469 200.344C75.5469 199.479 75.7083 198.734 76.0312 198.109C76.3646 197.484 76.8177 197.005 77.3906 196.672C77.9635 196.328 78.6042 196.156 79.3125 196.156ZM79.5469 197.406C78.9844 197.406 78.5052 197.547 78.1094 197.828C77.7135 198.109 77.4062 198.474 77.1875 198.922C76.9792 199.359 76.875 199.833 76.875 200.344C76.875 200.844 76.9792 201.307 77.1875 201.734C77.3958 202.151 77.6875 202.484 78.0625 202.734C78.4479 202.984 78.8906 203.109 79.3906 203.109C79.8698 203.109 80.2969 202.984 80.6719 202.734C81.0469 202.484 81.3438 202.141 81.5625 201.703C81.7812 201.255 81.8854 200.755 81.875 200.203L81.8594 198.703C81.5365 198.297 81.1875 197.979 80.8125 197.75C80.4479 197.521 80.026 197.406 79.5469 197.406ZM87.9688 194.062V196.312H90.25V197.516H87.9688V202.094C87.9688 202.417 88.0521 202.672 88.2188 202.859C88.3854 203.047 88.6406 203.141 88.9844 203.141C89.2969 203.141 89.5573 203.104 89.7656 203.031C89.974 202.948 90.1562 202.859 90.3125 202.766V203.812C90.1042 203.979 89.8802 204.109 89.6406 204.203C89.4115 204.307 89.099 204.359 88.7031 204.359C88.0365 204.359 87.5312 204.161 87.1875 203.766C86.8542 203.359 86.6875 202.823 86.6875 202.156V197.516H85.1875V197.141C85.6979 196.911 86.125 196.536 86.4688 196.016C86.8125 195.484 87.1146 194.833 87.375 194.062H87.9688ZM93.5938 195.969C93.8958 195.969 94.151 196.078 94.3594 196.297C94.5781 196.505 94.6875 196.76 94.6875 197.062C94.6875 197.354 94.5781 197.609 94.3594 197.828C94.151 198.047 93.8958 198.156 93.5938 198.156C93.2917 198.156 93.0312 198.047 92.8125 197.828C92.6042 197.609 92.5 197.354 92.5 197.062C92.5 196.76 92.6042 196.505 92.8125 196.297C93.0312 196.078 93.2917 195.969 93.5938 195.969ZM93.5938 202.219C93.8958 202.219 94.151 202.328 94.3594 202.547C94.5781 202.755 94.6875 203.01 94.6875 203.312C94.6875 203.604 94.5781 203.859 94.3594 204.078C94.151 204.297 93.8958 204.406 93.5938 204.406C93.2917 204.406 93.0312 204.297 92.8125 204.078C92.6042 203.859 92.5 203.604 92.5 203.312C92.5 203.01 92.6042 202.755 92.8125 202.547C93.0312 202.328 93.2917 202.219 93.5938 202.219ZM104.875 193.5C105.49 193.5 105.995 193.589 106.391 193.766C106.797 193.943 107.151 194.13 107.453 194.328V195.781C107.161 195.562 106.807 195.359 106.391 195.172C105.974 194.974 105.521 194.875 105.031 194.875C104.719 194.875 104.391 194.932 104.047 195.047C103.714 195.151 103.432 195.323 103.203 195.562C102.974 195.802 102.859 196.109 102.859 196.484C102.859 196.901 103.01 197.219 103.312 197.438C103.615 197.656 103.979 197.865 104.406 198.062L105.844 198.719C106.562 199.042 107.104 199.401 107.469 199.797C107.833 200.193 108.016 200.719 108.016 201.375C108.016 201.948 107.849 202.453 107.516 202.891C107.182 203.318 106.745 203.656 106.203 203.906C105.661 204.156 105.068 204.281 104.422 204.281C103.818 204.281 103.26 204.177 102.75 203.969C102.24 203.76 101.797 203.526 101.422 203.266V201.812C101.828 202.094 102.292 202.349 102.812 202.578C103.344 202.797 103.943 202.906 104.609 202.906C105.13 202.906 105.589 202.776 105.984 202.516C106.38 202.255 106.578 201.896 106.578 201.438C106.578 201.177 106.495 200.953 106.328 200.766C106.172 200.578 105.979 200.417 105.75 200.281C105.521 200.146 105.297 200.031 105.078 199.938L103.344 199.156C102.594 198.823 102.083 198.432 101.812 197.984C101.542 197.536 101.406 197.021 101.406 196.438C101.406 195.885 101.562 195.391 101.875 194.953C102.198 194.505 102.625 194.151 103.156 193.891C103.688 193.63 104.26 193.5 104.875 193.5ZM112.281 194.062V196.312H114.562V197.516H112.281V202.094C112.281 202.417 112.365 202.672 112.531 202.859C112.698 203.047 112.953 203.141 113.297 203.141C113.609 203.141 113.87 203.104 114.078 203.031C114.286 202.948 114.469 202.859 114.625 202.766V203.812C114.417 203.979 114.193 204.109 113.953 204.203C113.724 204.307 113.411 204.359 113.016 204.359C112.349 204.359 111.844 204.161 111.5 203.766C111.167 203.359 111 202.823 111 202.156V197.516H109.5V197.141C110.01 196.911 110.438 196.536 110.781 196.016C111.125 195.484 111.427 194.833 111.688 194.062H112.281ZM118.172 196.312V197.875C118.474 197.354 118.839 196.938 119.266 196.625C119.693 196.312 120.13 196.156 120.578 196.156C120.88 196.156 121.151 196.208 121.391 196.312V197.797C121.057 197.599 120.724 197.5 120.391 197.5C119.859 197.5 119.427 197.688 119.094 198.062C118.771 198.438 118.464 198.885 118.172 199.406V204.125H116.891V196.312H118.172ZM126.25 196.156C127.052 196.156 127.719 196.323 128.25 196.656C128.781 196.99 129.177 197.443 129.438 198.016C129.708 198.589 129.844 199.234 129.844 199.953V200.719H123.844C123.906 201.156 124.057 201.557 124.297 201.922C124.536 202.286 124.849 202.578 125.234 202.797C125.62 203.005 126.062 203.109 126.562 203.109C127.125 203.109 127.651 202.969 128.141 202.688C128.63 202.396 129.042 202.078 129.375 201.734L129.359 203.125C129.214 203.302 128.995 203.49 128.703 203.688C128.422 203.875 128.094 204.031 127.719 204.156C127.354 204.292 126.969 204.359 126.562 204.359C125.771 204.359 125.068 204.172 124.453 203.797C123.839 203.422 123.354 202.927 123 202.312C122.656 201.688 122.484 201.005 122.484 200.266C122.484 199.526 122.646 198.844 122.969 198.219C123.292 197.594 123.734 197.094 124.297 196.719C124.87 196.344 125.521 196.156 126.25 196.156ZM126.25 197.406C125.604 197.406 125.073 197.625 124.656 198.062C124.24 198.49 123.979 199.01 123.875 199.625H128.578C128.526 199.115 128.38 198.698 128.141 198.375C127.911 198.052 127.63 197.812 127.297 197.656C126.964 197.49 126.615 197.406 126.25 197.406ZM135.172 196.156C135.974 196.156 136.641 196.323 137.172 196.656C137.703 196.99 138.099 197.443 138.359 198.016C138.63 198.589 138.766 199.234 138.766 199.953V200.719H132.766C132.828 201.156 132.979 201.557 133.219 201.922C133.458 202.286 133.771 202.578 134.156 202.797C134.542 203.005 134.984 203.109 135.484 203.109C136.047 203.109 136.573 202.969 137.062 202.688C137.552 202.396 137.964 202.078 138.297 201.734L138.281 203.125C138.135 203.302 137.917 203.49 137.625 203.688C137.344 203.875 137.016 204.031 136.641 204.156C136.276 204.292 135.891 204.359 135.484 204.359C134.693 204.359 133.99 204.172 133.375 203.797C132.76 203.422 132.276 202.927 131.922 202.312C131.578 201.688 131.406 201.005 131.406 200.266C131.406 199.526 131.568 198.844 131.891 198.219C132.214 197.594 132.656 197.094 133.219 196.719C133.792 196.344 134.443 196.156 135.172 196.156ZM135.172 197.406C134.526 197.406 133.995 197.625 133.578 198.062C133.161 198.49 132.901 199.01 132.797 199.625H137.5C137.448 199.115 137.302 198.698 137.062 198.375C136.833 198.052 136.552 197.812 136.219 197.656C135.885 197.49 135.536 197.406 135.172 197.406ZM143.031 194.062V196.312H145.312V197.516H143.031V202.094C143.031 202.417 143.115 202.672 143.281 202.859C143.448 203.047 143.703 203.141 144.047 203.141C144.359 203.141 144.62 203.104 144.828 203.031C145.036 202.948 145.219 202.859 145.375 202.766V203.812C145.167 203.979 144.943 204.109 144.703 204.203C144.474 204.307 144.161 204.359 143.766 204.359C143.099 204.359 142.594 204.161 142.25 203.766C141.917 203.359 141.75 202.823 141.75 202.156V197.516H140.25V197.141C140.76 196.911 141.188 196.536 141.531 196.016C141.875 195.484 142.177 194.833 142.438 194.062H143.031ZM156.047 193.344C155.734 193.698 155.432 194.146 155.141 194.688C154.859 195.229 154.609 195.823 154.391 196.469C154.172 197.115 154 197.771 153.875 198.438C153.75 199.094 153.688 199.714 153.688 200.297C153.688 200.922 153.75 201.568 153.875 202.234C154 202.901 154.172 203.547 154.391 204.172C154.609 204.807 154.859 205.391 155.141 205.922C155.432 206.453 155.734 206.896 156.047 207.25H154.625C154.198 206.802 153.792 206.214 153.406 205.484C153.021 204.766 152.703 203.958 152.453 203.062C152.214 202.167 152.094 201.245 152.094 200.297C152.094 199.62 152.161 198.943 152.297 198.266C152.443 197.589 152.635 196.938 152.875 196.312C153.115 195.688 153.385 195.12 153.688 194.609C153.99 194.099 154.302 193.677 154.625 193.344H156.047ZM162.969 193.422C163.76 193.422 164.49 193.568 165.156 193.859C165.823 194.141 166.406 194.531 166.906 195.031C167.406 195.531 167.792 196.115 168.062 196.781C168.344 197.438 168.484 198.141 168.484 198.891C168.484 199.641 168.344 200.349 168.062 201.016C167.792 201.672 167.406 202.25 166.906 202.75C166.406 203.25 165.823 203.646 165.156 203.938C164.49 204.219 163.76 204.359 162.969 204.359C162.177 204.359 161.448 204.219 160.781 203.938C160.115 203.646 159.531 203.25 159.031 202.75C158.531 202.25 158.141 201.672 157.859 201.016C157.589 200.349 157.453 199.641 157.453 198.891C157.453 198.141 157.589 197.438 157.859 196.781C158.141 196.115 158.531 195.531 159.031 195.031C159.531 194.531 160.115 194.141 160.781 193.859C161.448 193.568 162.177 193.422 162.969 193.422ZM162.969 194.797C162.188 194.797 161.49 194.974 160.875 195.328C160.26 195.682 159.776 196.172 159.422 196.797C159.068 197.411 158.891 198.109 158.891 198.891C158.891 199.672 159.068 200.37 159.422 200.984C159.776 201.599 160.26 202.089 160.875 202.453C161.49 202.807 162.188 202.984 162.969 202.984C163.75 202.984 164.448 202.807 165.062 202.453C165.677 202.089 166.161 201.599 166.516 200.984C166.87 200.37 167.047 199.672 167.047 198.891C167.047 198.109 166.87 197.411 166.516 196.797C166.161 196.172 165.677 195.682 165.062 195.328C164.448 194.974 163.75 194.797 162.969 194.797ZM174.562 196.156C175.24 196.156 175.849 196.323 176.391 196.656C176.943 196.979 177.38 197.438 177.703 198.031C178.036 198.615 178.203 199.302 178.203 200.094C178.203 200.948 178.036 201.698 177.703 202.344C177.38 202.979 176.932 203.474 176.359 203.828C175.797 204.182 175.156 204.359 174.438 204.359C173.99 204.359 173.531 204.24 173.062 204C172.604 203.76 172.208 203.453 171.875 203.078V207.875H170.594V196.312H171.875V197.641C172.146 197.224 172.51 196.875 172.969 196.594C173.438 196.302 173.969 196.156 174.562 196.156ZM174.359 197.406C173.891 197.406 173.464 197.526 173.078 197.766C172.703 198.005 172.406 198.339 172.188 198.766C171.979 199.182 171.875 199.672 171.875 200.234L171.891 201.734C172.224 202.141 172.573 202.474 172.938 202.734C173.302 202.984 173.724 203.109 174.203 203.109C174.766 203.109 175.245 202.964 175.641 202.672C176.036 202.38 176.339 202.005 176.547 201.547C176.766 201.078 176.875 200.594 176.875 200.094C176.875 199.583 176.771 199.13 176.562 198.734C176.354 198.328 176.062 198.005 175.688 197.766C175.312 197.526 174.87 197.406 174.359 197.406ZM182.156 194.062V196.312H184.438V197.516H182.156V202.094C182.156 202.417 182.24 202.672 182.406 202.859C182.573 203.047 182.828 203.141 183.172 203.141C183.484 203.141 183.745 203.104 183.953 203.031C184.161 202.948 184.344 202.859 184.5 202.766V203.812C184.292 203.979 184.068 204.109 183.828 204.203C183.599 204.307 183.286 204.359 182.891 204.359C182.224 204.359 181.719 204.161 181.375 203.766C181.042 203.359 180.875 202.823 180.875 202.156V197.516H179.375V197.141C179.885 196.911 180.312 196.536 180.656 196.016C181 195.484 181.302 194.833 181.562 194.062H182.156ZM188.016 192.562C188.318 192.562 188.568 192.672 188.766 192.891C188.974 193.099 189.078 193.344 189.078 193.625C189.078 193.896 188.974 194.141 188.766 194.359C188.568 194.578 188.318 194.688 188.016 194.688C187.714 194.688 187.458 194.578 187.25 194.359C187.052 194.141 186.953 193.896 186.953 193.625C186.953 193.344 187.052 193.099 187.25 192.891C187.458 192.672 187.714 192.562 188.016 192.562ZM188.812 196.312V204.125H187.531V197.516H186.297V196.312H188.812ZM195.109 196.156C195.901 196.156 196.604 196.344 197.219 196.719C197.833 197.094 198.312 197.594 198.656 198.219C199.01 198.844 199.188 199.526 199.188 200.266C199.188 201.005 199.01 201.688 198.656 202.312C198.312 202.927 197.833 203.422 197.219 203.797C196.604 204.172 195.901 204.359 195.109 204.359C194.318 204.359 193.615 204.172 193 203.797C192.385 203.422 191.901 202.927 191.547 202.312C191.203 201.688 191.031 201.005 191.031 200.266C191.031 199.526 191.203 198.844 191.547 198.219C191.901 197.594 192.385 197.094 193 196.719C193.615 196.344 194.318 196.156 195.109 196.156ZM195.109 197.406C194.557 197.406 194.073 197.542 193.656 197.812C193.24 198.073 192.917 198.422 192.688 198.859C192.469 199.286 192.359 199.755 192.359 200.266C192.359 200.766 192.469 201.234 192.688 201.672C192.917 202.099 193.24 202.448 193.656 202.719C194.073 202.979 194.557 203.109 195.109 203.109C195.672 203.109 196.156 202.979 196.562 202.719C196.979 202.448 197.297 202.099 197.516 201.672C197.745 201.234 197.859 200.766 197.859 200.266C197.859 199.755 197.745 199.286 197.516 198.859C197.297 198.422 196.979 198.073 196.562 197.812C196.156 197.542 195.672 197.406 195.109 197.406ZM202.578 196.312V197.547C202.745 197.339 202.958 197.13 203.219 196.922C203.479 196.703 203.771 196.521 204.094 196.375C204.427 196.229 204.771 196.156 205.125 196.156C205.656 196.156 206.141 196.276 206.578 196.516C207.016 196.745 207.365 197.099 207.625 197.578C207.885 198.047 208.016 198.641 208.016 199.359V204.125H206.734L206.719 199.484C206.719 198.807 206.568 198.292 206.266 197.938C205.974 197.583 205.521 197.406 204.906 197.406C204.49 197.406 204.073 197.562 203.656 197.875C203.25 198.177 202.891 198.531 202.578 198.938V204.125H201.297V196.312H202.578ZM213.656 196.156C214.104 196.156 214.557 196.266 215.016 196.484C215.484 196.693 215.885 196.984 216.219 197.359V196.312H217.5V204.125H216.219V202.797C215.948 203.214 215.578 203.578 215.109 203.891C214.651 204.203 214.125 204.359 213.531 204.359C212.865 204.359 212.255 204.193 211.703 203.859C211.151 203.516 210.708 203.042 210.375 202.438C210.052 201.833 209.891 201.135 209.891 200.344C209.891 199.479 210.052 198.734 210.375 198.109C210.708 197.484 211.161 197.005 211.734 196.672C212.307 196.328 212.948 196.156 213.656 196.156ZM213.891 197.406C213.328 197.406 212.849 197.547 212.453 197.828C212.057 198.109 211.75 198.474 211.531 198.922C211.323 199.359 211.219 199.833 211.219 200.344C211.219 200.844 211.323 201.307 211.531 201.734C211.74 202.151 212.031 202.484 212.406 202.734C212.792 202.984 213.234 203.109 213.734 203.109C214.214 203.109 214.641 202.984 215.016 202.734C215.391 202.484 215.688 202.141 215.906 201.703C216.125 201.255 216.229 200.755 216.219 200.203L216.203 198.703C215.88 198.297 215.531 197.979 215.156 197.75C214.792 197.521 214.37 197.406 213.891 197.406ZM221.438 192.875V204.125H220.156V192.875H221.438ZM223.859 193.344H225.281C225.604 193.677 225.917 194.099 226.219 194.609C226.521 195.12 226.792 195.688 227.031 196.312C227.271 196.938 227.458 197.589 227.594 198.266C227.74 198.943 227.812 199.62 227.812 200.297C227.812 201.245 227.688 202.167 227.438 203.062C227.198 203.958 226.885 204.766 226.5 205.484C226.115 206.214 225.708 206.802 225.281 207.25H223.859C224.172 206.896 224.469 206.453 224.75 205.922C225.042 205.391 225.297 204.807 225.516 204.172C225.734 203.547 225.906 202.901 226.031 202.234C226.156 201.568 226.219 200.922 226.219 200.297C226.219 199.714 226.156 199.094 226.031 198.438C225.906 197.771 225.734 197.115 225.516 196.469C225.297 195.823 225.042 195.229 224.75 194.688C224.469 194.146 224.172 193.698 223.859 193.344ZM230.781 202.281L232.062 202.719L230.656 206.891L229.688 206.641L230.781 202.281ZM244.297 193.422C245.057 193.422 245.677 193.526 246.156 193.734C246.646 193.943 247.073 194.214 247.438 194.547V196.094C247.208 195.927 246.948 195.745 246.656 195.547C246.375 195.349 246.042 195.177 245.656 195.031C245.281 194.875 244.828 194.797 244.297 194.797C243.516 194.797 242.818 194.974 242.203 195.328C241.589 195.682 241.104 196.172 240.75 196.797C240.396 197.411 240.219 198.109 240.219 198.891C240.219 199.672 240.396 200.37 240.75 200.984C241.104 201.599 241.589 202.089 242.203 202.453C242.818 202.807 243.516 202.984 244.297 202.984C245.099 202.984 245.781 202.854 246.344 202.594C246.917 202.323 247.385 202.047 247.75 201.766V203.172C247.385 203.495 246.906 203.776 246.312 204.016C245.729 204.245 245.057 204.359 244.297 204.359C243.505 204.359 242.776 204.219 242.109 203.938C241.443 203.646 240.859 203.25 240.359 202.75C239.859 202.25 239.469 201.672 239.188 201.016C238.917 200.349 238.781 199.641 238.781 198.891C238.781 198.141 238.917 197.438 239.188 196.781C239.469 196.115 239.859 195.531 240.359 195.031C240.859 194.531 241.443 194.141 242.109 193.859C242.776 193.568 243.505 193.422 244.297 193.422ZM251.109 192.562C251.411 192.562 251.661 192.672 251.859 192.891C252.068 193.099 252.172 193.344 252.172 193.625C252.172 193.896 252.068 194.141 251.859 194.359C251.661 194.578 251.411 194.688 251.109 194.688C250.807 194.688 250.552 194.578 250.344 194.359C250.146 194.141 250.047 193.896 250.047 193.625C250.047 193.344 250.146 193.099 250.344 192.891C250.552 192.672 250.807 192.562 251.109 192.562ZM251.906 196.312V204.125H250.625V197.516H249.391V196.312H251.906ZM256.828 194.062V196.312H259.109V197.516H256.828V202.094C256.828 202.417 256.911 202.672 257.078 202.859C257.245 203.047 257.5 203.141 257.844 203.141C258.156 203.141 258.417 203.104 258.625 203.031C258.833 202.948 259.016 202.859 259.172 202.766V203.812C258.964 203.979 258.74 204.109 258.5 204.203C258.271 204.307 257.958 204.359 257.562 204.359C256.896 204.359 256.391 204.161 256.047 203.766C255.714 203.359 255.547 202.823 255.547 202.156V197.516H254.047V197.141C254.557 196.911 254.984 196.536 255.328 196.016C255.672 195.484 255.974 194.833 256.234 194.062H256.828ZM261.875 196.312L264.609 202.062L267.266 196.312H268.797L263.047 207.875H261.562L263.797 203.656L260.344 196.312H261.875ZM270.906 202.281L272.188 202.719L270.781 206.891L269.812 206.641L270.906 202.281ZM282.375 193.5C282.99 193.5 283.495 193.589 283.891 193.766C284.297 193.943 284.651 194.13 284.953 194.328V195.781C284.661 195.562 284.307 195.359 283.891 195.172C283.474 194.974 283.021 194.875 282.531 194.875C282.219 194.875 281.891 194.932 281.547 195.047C281.214 195.151 280.932 195.323 280.703 195.562C280.474 195.802 280.359 196.109 280.359 196.484C280.359 196.901 280.51 197.219 280.812 197.438C281.115 197.656 281.479 197.865 281.906 198.062L283.344 198.719C284.062 199.042 284.604 199.401 284.969 199.797C285.333 200.193 285.516 200.719 285.516 201.375C285.516 201.948 285.349 202.453 285.016 202.891C284.682 203.318 284.245 203.656 283.703 203.906C283.161 204.156 282.568 204.281 281.922 204.281C281.318 204.281 280.76 204.177 280.25 203.969C279.74 203.76 279.297 203.526 278.922 203.266V201.812C279.328 202.094 279.792 202.349 280.312 202.578C280.844 202.797 281.443 202.906 282.109 202.906C282.63 202.906 283.089 202.776 283.484 202.516C283.88 202.255 284.078 201.896 284.078 201.438C284.078 201.177 283.995 200.953 283.828 200.766C283.672 200.578 283.479 200.417 283.25 200.281C283.021 200.146 282.797 200.031 282.578 199.938L280.844 199.156C280.094 198.823 279.583 198.432 279.312 197.984C279.042 197.536 278.906 197.021 278.906 196.438C278.906 195.885 279.062 195.391 279.375 194.953C279.698 194.505 280.125 194.151 280.656 193.891C281.188 193.63 281.76 193.5 282.375 193.5ZM289.781 194.062V196.312H292.062V197.516H289.781V202.094C289.781 202.417 289.865 202.672 290.031 202.859C290.198 203.047 290.453 203.141 290.797 203.141C291.109 203.141 291.37 203.104 291.578 203.031C291.786 202.948 291.969 202.859 292.125 202.766V203.812C291.917 203.979 291.693 204.109 291.453 204.203C291.224 204.307 290.911 204.359 290.516 204.359C289.849 204.359 289.344 204.161 289 203.766C288.667 203.359 288.5 202.823 288.5 202.156V197.516H287V197.141C287.51 196.911 287.938 196.536 288.281 196.016C288.625 195.484 288.927 194.833 289.188 194.062H289.781ZM297.609 196.156C298.057 196.156 298.51 196.266 298.969 196.484C299.438 196.693 299.839 196.984 300.172 197.359V196.312H301.453V204.125H300.172V202.797C299.901 203.214 299.531 203.578 299.062 203.891C298.604 204.203 298.078 204.359 297.484 204.359C296.818 204.359 296.208 204.193 295.656 203.859C295.104 203.516 294.661 203.042 294.328 202.438C294.005 201.833 293.844 201.135 293.844 200.344C293.844 199.479 294.005 198.734 294.328 198.109C294.661 197.484 295.115 197.005 295.688 196.672C296.26 196.328 296.901 196.156 297.609 196.156ZM297.844 197.406C297.281 197.406 296.802 197.547 296.406 197.828C296.01 198.109 295.703 198.474 295.484 198.922C295.276 199.359 295.172 199.833 295.172 200.344C295.172 200.844 295.276 201.307 295.484 201.734C295.693 202.151 295.984 202.484 296.359 202.734C296.745 202.984 297.188 203.109 297.688 203.109C298.167 203.109 298.594 202.984 298.969 202.734C299.344 202.484 299.641 202.141 299.859 201.703C300.078 201.255 300.182 200.755 300.172 200.203L300.156 198.703C299.833 198.297 299.484 197.979 299.109 197.75C298.745 197.521 298.323 197.406 297.844 197.406ZM306.266 194.062V196.312H308.547V197.516H306.266V202.094C306.266 202.417 306.349 202.672 306.516 202.859C306.682 203.047 306.938 203.141 307.281 203.141C307.594 203.141 307.854 203.104 308.062 203.031C308.271 202.948 308.453 202.859 308.609 202.766V203.812C308.401 203.979 308.177 204.109 307.938 204.203C307.708 204.307 307.396 204.359 307 204.359C306.333 204.359 305.828 204.161 305.484 203.766C305.151 203.359 304.984 202.823 304.984 202.156V197.516H303.484V197.141C303.995 196.911 304.422 196.536 304.766 196.016C305.109 195.484 305.411 194.833 305.672 194.062H306.266ZM314.094 196.156C314.896 196.156 315.562 196.323 316.094 196.656C316.625 196.99 317.021 197.443 317.281 198.016C317.552 198.589 317.688 199.234 317.688 199.953V200.719H311.688C311.75 201.156 311.901 201.557 312.141 201.922C312.38 202.286 312.693 202.578 313.078 202.797C313.464 203.005 313.906 203.109 314.406 203.109C314.969 203.109 315.495 202.969 315.984 202.688C316.474 202.396 316.885 202.078 317.219 201.734L317.203 203.125C317.057 203.302 316.839 203.49 316.547 203.688C316.266 203.875 315.938 204.031 315.562 204.156C315.198 204.292 314.812 204.359 314.406 204.359C313.615 204.359 312.911 204.172 312.297 203.797C311.682 203.422 311.198 202.927 310.844 202.312C310.5 201.688 310.328 201.005 310.328 200.266C310.328 199.526 310.49 198.844 310.812 198.219C311.135 197.594 311.578 197.094 312.141 196.719C312.714 196.344 313.365 196.156 314.094 196.156ZM314.094 197.406C313.448 197.406 312.917 197.625 312.5 198.062C312.083 198.49 311.823 199.01 311.719 199.625H316.422C316.37 199.115 316.224 198.698 315.984 198.375C315.755 198.052 315.474 197.812 315.141 197.656C314.807 197.49 314.458 197.406 314.094 197.406ZM320.344 202.281L321.625 202.719L320.219 206.891L319.25 206.641L320.344 202.281ZM333.859 193.422C334.62 193.422 335.24 193.526 335.719 193.734C336.208 193.943 336.635 194.214 337 194.547V196.094C336.771 195.927 336.51 195.745 336.219 195.547C335.938 195.349 335.604 195.177 335.219 195.031C334.844 194.875 334.391 194.797 333.859 194.797C333.078 194.797 332.38 194.974 331.766 195.328C331.151 195.682 330.667 196.172 330.312 196.797C329.958 197.411 329.781 198.109 329.781 198.891C329.781 199.672 329.958 200.37 330.312 200.984C330.667 201.599 331.151 202.089 331.766 202.453C332.38 202.807 333.078 202.984 333.859 202.984C334.661 202.984 335.344 202.854 335.906 202.594C336.479 202.323 336.948 202.047 337.312 201.766V203.172C336.948 203.495 336.469 203.776 335.875 204.016C335.292 204.245 334.62 204.359 333.859 204.359C333.068 204.359 332.339 204.219 331.672 203.938C331.005 203.646 330.422 203.25 329.922 202.75C329.422 202.25 329.031 201.672 328.75 201.016C328.479 200.349 328.344 199.641 328.344 198.891C328.344 198.141 328.479 197.438 328.75 196.781C329.031 196.115 329.422 195.531 329.922 195.031C330.422 194.531 331.005 194.141 331.672 193.859C332.339 193.568 333.068 193.422 333.859 193.422ZM342.953 196.156C343.745 196.156 344.448 196.344 345.062 196.719C345.677 197.094 346.156 197.594 346.5 198.219C346.854 198.844 347.031 199.526 347.031 200.266C347.031 201.005 346.854 201.688 346.5 202.312C346.156 202.927 345.677 203.422 345.062 203.797C344.448 204.172 343.745 204.359 342.953 204.359C342.161 204.359 341.458 204.172 340.844 203.797C340.229 203.422 339.745 202.927 339.391 202.312C339.047 201.688 338.875 201.005 338.875 200.266C338.875 199.526 339.047 198.844 339.391 198.219C339.745 197.594 340.229 197.094 340.844 196.719C341.458 196.344 342.161 196.156 342.953 196.156ZM342.953 197.406C342.401 197.406 341.917 197.542 341.5 197.812C341.083 198.073 340.76 198.422 340.531 198.859C340.312 199.286 340.203 199.755 340.203 200.266C340.203 200.766 340.312 201.234 340.531 201.672C340.76 202.099 341.083 202.448 341.5 202.719C341.917 202.979 342.401 203.109 342.953 203.109C343.516 203.109 344 202.979 344.406 202.719C344.823 202.448 345.141 202.099 345.359 201.672C345.589 201.234 345.703 200.766 345.703 200.266C345.703 199.755 345.589 199.286 345.359 198.859C345.141 198.422 344.823 198.073 344.406 197.812C344 197.542 343.516 197.406 342.953 197.406ZM355.531 196.312V200.938C355.531 201.625 355.385 202.219 355.094 202.719C354.802 203.219 354.406 203.604 353.906 203.875C353.406 204.146 352.844 204.281 352.219 204.281C351.594 204.281 351.031 204.146 350.531 203.875C350.031 203.604 349.635 203.219 349.344 202.719C349.052 202.219 348.906 201.625 348.906 200.938V196.312H350.234V200.938C350.234 201.615 350.432 202.135 350.828 202.5C351.234 202.854 351.698 203.031 352.219 203.031C352.74 203.031 353.198 202.854 353.594 202.5C354 202.135 354.203 201.615 354.203 200.938V196.312H355.531ZM359.234 196.312V197.547C359.401 197.339 359.615 197.13 359.875 196.922C360.135 196.703 360.427 196.521 360.75 196.375C361.083 196.229 361.427 196.156 361.781 196.156C362.312 196.156 362.797 196.276 363.234 196.516C363.672 196.745 364.021 197.099 364.281 197.578C364.542 198.047 364.672 198.641 364.672 199.359V204.125H363.391L363.375 199.484C363.375 198.807 363.224 198.292 362.922 197.938C362.63 197.583 362.177 197.406 361.562 197.406C361.146 197.406 360.729 197.562 360.312 197.875C359.906 198.177 359.547 198.531 359.234 198.938V204.125H357.953V196.312H359.234ZM369.25 194.062V196.312H371.531V197.516H369.25V202.094C369.25 202.417 369.333 202.672 369.5 202.859C369.667 203.047 369.922 203.141 370.266 203.141C370.578 203.141 370.839 203.104 371.047 203.031C371.255 202.948 371.438 202.859 371.594 202.766V203.812C371.385 203.979 371.161 204.109 370.922 204.203C370.693 204.307 370.38 204.359 369.984 204.359C369.318 204.359 368.812 204.161 368.469 203.766C368.135 203.359 367.969 202.823 367.969 202.156V197.516H366.469V197.141C366.979 196.911 367.406 196.536 367.75 196.016C368.094 195.484 368.396 194.833 368.656 194.062H369.25ZM375.141 196.312V197.875C375.443 197.354 375.807 196.938 376.234 196.625C376.661 196.312 377.099 196.156 377.547 196.156C377.849 196.156 378.12 196.208 378.359 196.312V197.797C378.026 197.599 377.693 197.5 377.359 197.5C376.828 197.5 376.396 197.688 376.062 198.062C375.74 198.438 375.432 198.885 375.141 199.406V204.125H373.859V196.312H375.141ZM380.438 196.312L383.172 202.062L385.828 196.312H387.359L381.609 207.875H380.125L382.359 203.656L378.906 196.312H380.438Z" fill="#B1B1B2"/>
<rect x="23.25" y="180.5" width="674.5" height="36.25" rx="3.75" stroke="#EDEEC9" stroke-width="2.5"/>
<g filter="url(#filter0_d_27_584)">
<rect x="746" y="173" width="100.5" height="47.875" rx="12.5" fill="#796EE8"/>
<path d="M765.65 202.198V200.958H767.51V201.698L768.19 202.358H771.71L772.39 201.698V200.378L771.71 199.678H767.41L765.73 197.998V195.718L767.45 193.978H772.31L774.05 195.718V196.958H772.19V196.218L771.51 195.558H768.27L767.59 196.218V197.458L768.27 198.158H772.53L774.25 199.878V202.198L772.53 203.938H767.39L765.65 202.198ZM776.341 202.038V195.898L778.261 193.978H783.481L785.401 195.898V199.538H778.201V201.458L779.081 202.338H782.661L783.541 201.478V200.798H785.381V202.038L783.501 203.938H778.241L776.341 202.038ZM783.541 198.078V196.458L782.641 195.578H779.101L778.201 196.458V198.078H783.541ZM787.608 202.238V199.778L789.308 198.078H794.548V196.398L793.668 195.538H790.408L789.548 196.398V197.138H787.688V195.918L789.628 193.978H794.448L796.388 195.918V203.938H794.648V202.298L792.928 203.938H789.308L787.608 202.238ZM792.668 202.398L794.548 200.598V199.558H790.168L789.468 200.258V201.718L790.168 202.398H792.668ZM799.08 193.978H800.86V195.718L802.58 193.978H805.24V195.598H803L800.94 197.678V203.938H799.08V193.978ZM806.223 202.038V195.878L808.123 193.978H813.143L815.063 195.898V197.318H813.203V196.498L812.303 195.598H808.983L808.083 196.498V201.418L808.983 202.318H812.303L813.203 201.418V200.598H815.063V202.018L813.143 203.938H808.123L806.223 202.038ZM817.263 189.658H819.123V195.878L821.023 193.978H824.163L826.123 195.938V203.938H824.263V196.498L823.363 195.598H821.423L819.123 197.898V203.938H817.263V189.658Z" fill="#FBFCF4"/>
<rect x="747.172" y="174.172" width="98.1562" height="45.5312" rx="11.3281" stroke="black" stroke-width="2.34375"/>
</g>
<mask id="path-12-outside-1_27_584" maskUnits="userSpaceOnUse" x="16" y="21" width="44" height="45" fill="black">
<rect fill="white" x="16" y="21" width="44" height="45"/>
<path d="M50.5 39.25C50.5 42.8359 49.3359 46.1484 47.375 48.8359L57.2656 58.7344C58.2422 59.7109 58.2422 61.2969 57.2656 62.2734C56.2891 63.25 54.7031 63.25 53.7266 62.2734L43.8359 52.375C41.1484 54.3438 37.8359 55.5 34.25 55.5C25.2734 55.5 18 48.2266 18 39.25C18 30.2734 25.2734 23 34.25 23C43.2266 23 50.5 30.2734 50.5 39.25ZM40.5 36.75C40.5 33.2969 37.7031 30.5 34.25 30.5C30.7969 30.5 28 33.2969 28 36.75C28 40.5625 31.6328 45.4688 33.3594 47.5781C33.8281 48.1484 34.6719 48.1484 35.1328 47.5781C36.8594 45.4688 40.4922 40.5625 40.4922 36.75H40.5ZM31.75 36.75C31.75 36.087 32.0134 35.4511 32.4822 34.9822C32.9511 34.5134 33.587 34.25 34.25 34.25C34.913 34.25 35.5489 34.5134 36.0178 34.9822C36.4866 35.4511 36.75 36.087 36.75 36.75C36.75 37.413 36.4866 38.0489 36.0178 38.5178C35.5489 38.9866 34.913 39.25 34.25 39.25C33.587 39.25 32.9511 38.9866 32.4822 38.5178C32.0134 38.0489 31.75 37.413 31.75 36.75Z"/>
</mask>
<path d="M50.5 39.25C50.5 42.8359 49.3359 46.1484 47.375 48.8359L57.2656 58.7344C58.2422 59.7109 58.2422 61.2969 57.2656 62.2734C56.2891 63.25 54.7031 63.25 53.7266 62.2734L43.8359 52.375C41.1484 54.3438 37.8359 55.5 34.25 55.5C25.2734 55.5 18 48.2266 18 39.25C18 30.2734 25.2734 23 34.25 23C43.2266 23 50.5 30.2734 50.5 39.25ZM40.5 36.75C40.5 33.2969 37.7031 30.5 34.25 30.5C30.7969 30.5 28 33.2969 28 36.75C28 40.5625 31.6328 45.4688 33.3594 47.5781C33.8281 48.1484 34.6719 48.1484 35.1328 47.5781C36.8594 45.4688 40.4922 40.5625 40.4922 36.75H40.5ZM31.75 36.75C31.75 36.087 32.0134 35.4511 32.4822 34.9822C32.9511 34.5134 33.587 34.25 34.25 34.25C34.913 34.25 35.5489 34.5134 36.0178 34.9822C36.4866 35.4511 36.75 36.087 36.75 36.75C36.75 37.413 36.4866 38.0489 36.0178 38.5178C35.5489 38.9866 34.913 39.25 34.25 39.25C33.587 39.25 32.9511 38.9866 32.4822 38.5178C32.0134 38.0489 31.75 37.413 31.75 36.75Z" fill="#61BECB"/>
<path d="M50.5 39.25C50.5 42.8359 49.3359 46.1484 47.375 48.8359L57.2656 58.7344C58.2422 59.7109 58.2422 61.2969 57.2656 62.2734C56.2891 63.25 54.7031 63.25 53.7266 62.2734L43.8359 52.375C41.1484 54.3438 37.8359 55.5 34.25 55.5C25.2734 55.5 18 48.2266 18 39.25C18 30.2734 25.2734 23 34.25 23C43.2266 23 50.5 30.2734 50.5 39.25ZM40.5 36.75C40.5 33.2969 37.7031 30.5 34.25 30.5C30.7969 30.5 28 33.2969 28 36.75C28 40.5625 31.6328 45.4688 33.3594 47.5781C33.8281 48.1484 34.6719 48.1484 35.1328 47.5781C36.8594 45.4688 40.4922 40.5625 40.4922 36.75H40.5ZM31.75 36.75C31.75 36.087 32.0134 35.4511 32.4822 34.9822C32.9511 34.5134 33.587 34.25 34.25 34.25C34.913 34.25 35.5489 34.5134 36.0178 34.9822C36.4866 35.4511 36.75 36.087 36.75 36.75C36.75 37.413 36.4866 38.0489 36.0178 38.5178C35.5489 38.9866 34.913 39.25 34.25 39.25C33.587 39.25 32.9511 38.9866 32.4822 38.5178C32.0134 38.0489 31.75 37.413 31.75 36.75Z" stroke="black" stroke-width="4" mask="url(#path-12-outside-1_27_584)"/>
<defs>
<filter id="filter0_d_27_584" x="736.625" y="173" width="113" height="60.375" filterUnits="userSpaceOnUse" color-interpolation-filters="sRGB">
<feFlood flood-opacity="0" result="BackgroundImageFix"/>
<feColorMatrix in="SourceAlpha" type="matrix" values="0 0 0 0 0 0 0 0 0 0 0 0 0 0 0 0 0 0 127 0" result="hardAlpha"/>
<feOffset dx="-3.125" dy="6.25"/>
<feGaussianBlur stdDeviation="3.125"/>
<feComposite in2="hardAlpha" operator="out"/>
<feColorMatrix type="matrix" values="0 0 0 0 0 0 0 0 0 0 0 0 0 0 0 0 0 0 0.25 0"/>
<feBlend mode="normal" in2="BackgroundImageFix" result="effect1_dropShadow_27_584"/>
<feBlend mode="normal" in="SourceGraphic" in2="effect1_dropShadow_27_584" result="shape"/>
</filter>
</defs>
</svg>
